<?xml version="1.0" encoding="UTF-8" standalone="no"?>
<svg
   xmlns:dc="http://purl.org/dc/elements/1.1/"
   xmlns:cc="http://creativecommons.org/ns#"
   xmlns:rdf="http://www.w3.org/1999/02/22-rdf-syntax-ns#"
   xmlns:svg="http://www.w3.org/2000/svg"
   xmlns="http://www.w3.org/2000/svg"
   xmlns:sodipodi="http://sodipodi.sourceforge.net/DTD/sodipodi-0.dtd"
   xmlns:inkscape="http://www.inkscape.org/namespaces/inkscape"
   version="1.1"
   viewBox="0 0 793.98499 286.01505"
   stroke-miterlimit="10"
   id="svg2"
   inkscape:version="0.91 r13725"
   sodipodi:docname="pipeline.svg"
   width="793.98499"
   height="286.01505"
   style="fill:none;stroke:none;stroke-linecap:square;stroke-miterlimit:10">
  <metadata
     id="metadata137">
    <rdf:RDF>
      <cc:Work
         rdf:about="">
        <dc:format>image/svg+xml</dc:format>
        <dc:type
           rdf:resource="http://purl.org/dc/dcmitype/StillImage" />
        <dc:title></dc:title>
      </cc:Work>
    </rdf:RDF>
  </metadata>
  <defs
     id="defs135">
    <clipPath
       clipPathUnits="userSpaceOnUse"
       id="clipPath3467">
      <rect
         style="fill:none;fill-opacity:1;stroke:#000000;stroke-width:1;stroke-miterlimit:4;stroke-dasharray:none;stroke-dashoffset:0;stroke-opacity:1"
         id="rect3469"
         width="793.98499"
         height="286.01505"
         x="59.548874"
         y="82.556389" />
    </clipPath>
  </defs>
  <sodipodi:namedview
     pagecolor="#ffffff"
     bordercolor="#666666"
     borderopacity="1"
     objecttolerance="10"
     gridtolerance="10"
     guidetolerance="10"
     inkscape:pageopacity="0"
     inkscape:pageshadow="2"
     inkscape:window-width="1920"
     inkscape:window-height="1054"
     id="namedview133"
     showgrid="false"
     fit-margin-top="0"
     fit-margin-left="0"
     fit-margin-right="0"
     fit-margin-bottom="0"
     inkscape:zoom="1.1083333"
     inkscape:cx="498.76822"
     inkscape:cy="113.79275"
     inkscape:window-x="0"
     inkscape:window-y="360"
     inkscape:window-maximized="1"
     inkscape:current-layer="svg2" />
  <clipPath
     id="p.0">
    <path
       d="M 0,0 960,0 960,540 0,540 0,0 Z"
       id="path5"
       inkscape:connector-curvature="0"
       style="clip-rule:nonzero" />
  </clipPath>
  <g
     clip-path="url(#clipPath3467)"
     id="g7"
     transform="translate(-59.548874,-82.556389)">
    <path
       d="m 0,0 960,0 0,540 -960,0 z"
       id="path9"
       inkscape:connector-curvature="0"
       style="fill:#ffffff;fill-rule:evenodd" />
    <path
       d="m 63.00525,88.10236 194.04724,0 0,58.48818 -194.04724,0 z"
       id="path11"
       inkscape:connector-curvature="0"
       style="fill:#eeeeee;fill-rule:evenodd" />
    <path
       d="m 63.00525,88.10236 194.04724,0 0,58.48818 -194.04724,0 z"
       id="path13"
       inkscape:connector-curvature="0"
       style="fill-rule:evenodd;stroke:#595959;stroke-width:1;stroke-linecap:butt;stroke-linejoin:round" />
    <path
       d="m 81.986,113.26646 0,-12 -4.46875,0 0,-1.59375 10.765625,0 0,1.59375 -4.5,0 0,12 -1.796875,0 z m 14.161606,-1.21875 q -0.9375,0.79687 -1.796875,1.125 -0.859375,0.3125 -1.84375,0.3125 -1.609375,0 -2.484375,-0.78125 -0.875,-0.79688 -0.875,-2.03125 0,-0.73438 0.328125,-1.32813 0.328125,-0.59375 0.859375,-0.95312 0.53125,-0.35938 1.203125,-0.54688 0.5,-0.14062 1.484375,-0.25 2.03125,-0.25 2.984375,-0.57812 0,-0.34375 0,-0.4375 0,-1.01563 -0.46875,-1.4375 -0.640625,-0.5625 -1.90625,-0.5625 -1.171875,0 -1.734375,0.40625 -0.5625,0.40625 -0.828125,1.46875 l -1.640625,-0.23438 q 0.234375,-1.04687 0.734375,-1.6875 0.515625,-0.64062 1.46875,-0.98437 0.96875,-0.35938 2.25,-0.35938 1.265625,0 2.046875,0.29688 0.78125,0.29687 1.15625,0.75 0.375,0.45312 0.515625,1.14062 0.09375,0.42188 0.09375,1.53125 l 0,2.23438 q 0,2.32812 0.09375,2.95312 0.109375,0.60938 0.4375,1.17188 l -1.75,0 q -0.265625,-0.51563 -0.328125,-1.21875 z m -0.140625,-3.71875 q -0.90625,0.35937 -2.734375,0.625 -1.03125,0.14062 -1.453125,0.32812 -0.421875,0.1875 -0.65625,0.54688 -0.234375,0.35937 -0.234375,0.79687 0,0.67188 0.5,1.125 0.515625,0.4375 1.484375,0.4375 0.96875,0 1.71875,-0.42187 0.75,-0.4375 1.109375,-1.15625 0.265625,-0.57813 0.265625,-1.67188 l 0,-0.60937 z m 4.078839,4.9375 0,-9.85938 1.5,0 0,1.40625 q 1.09375,-1.625 3.14063,-1.625 0.89062,0 1.64062,0.32813 0.75,0.3125 1.10938,0.84375 0.375,0.51562 0.53125,1.21875 0.0937,0.46875 0.0937,1.625 l 0,6.0625 -1.67188,0 0,-6 q 0,-1.01563 -0.20312,-1.51563 -0.1875,-0.51562 -0.6875,-0.8125 -0.5,-0.29687 -1.17188,-0.29687 -1.0625,0 -1.84375,0.67187 -0.76562,0.67188 -0.76562,2.57813 l 0,5.375 -1.67188,0 z m 10.07885,0.8125 1.60937,0.25 q 0.10938,0.75 0.57813,1.09375 0.60937,0.45312 1.6875,0.45312 1.17187,0 1.79687,-0.46875 0.625,-0.45312 0.85938,-1.28125 0.125,-0.51562 0.10937,-2.15625 -1.09375,1.29688 -2.71875,1.29688 -2.03125,0 -3.15625,-1.46875 -1.10937,-1.46875 -1.10937,-3.51563 0,-1.40625 0.51562,-2.59375 0.51563,-1.20312 1.48438,-1.84375 0.96875,-0.65625 2.26562,-0.65625 1.75,0 2.875,1.40625 l 0,-1.1875 1.54688,0 0,8.51563 q 0,2.3125 -0.46875,3.26562 -0.46875,0.96875 -1.48438,1.51563 -1.01562,0.5625 -2.5,0.5625 -1.76562,0 -2.85937,-0.79688 -1.07813,-0.79687 -1.03125,-2.39062 z m 1.375,-5.92188 q 0,1.95313 0.76562,2.84375 0.78125,0.89063 1.9375,0.89063 1.14063,0 1.92188,-0.89063 0.78125,-0.89062 0.78125,-2.78125 0,-1.8125 -0.8125,-2.71875 -0.79688,-0.92187 -1.92188,-0.92187 -1.10937,0 -1.89062,0.90625 -0.78125,0.89062 -0.78125,2.67187 z m 8.67259,0.1875 q 0,-2.73437 1.53125,-4.0625 1.26562,-1.09375 3.09375,-1.09375 2.03125,0 3.3125,1.34375 1.29688,1.32813 1.29688,3.67188 0,1.90625 -0.57813,3 -0.5625,1.07812 -1.65625,1.6875 -1.07813,0.59375 -2.375,0.59375 -2.0625,0 -3.34375,-1.32813 -1.28125,-1.32812 -1.28125,-3.8125 z m 1.71875,0 q 0,1.89063 0.82812,2.82813 0.82813,0.9375 2.07813,0.9375 1.25,0 2.0625,-0.9375 0.82812,-0.95313 0.82812,-2.89063 0,-1.82812 -0.82812,-2.76562 -0.82813,-0.9375 -2.0625,-0.9375 -1.25,0 -2.07813,0.9375 -0.82812,0.9375 -0.82812,2.82812 z m 18.13715,4.92188 0,-12 -4.46875,0 0,-1.59375 10.76563,0 0,1.59375 -4.5,0 0,12 -1.79688,0 z m 7.09911,-4.92188 q 0,-2.73437 1.53125,-4.0625 1.26562,-1.09375 3.09375,-1.09375 2.03125,0 3.3125,1.34375 1.29687,1.32813 1.29687,3.67188 0,1.90625 -0.57812,3 -0.5625,1.07812 -1.65625,1.6875 -1.07813,0.59375 -2.375,0.59375 -2.0625,0 -3.34375,-1.32813 -1.28125,-1.32812 -1.28125,-3.8125 z m 1.71875,0 q 0,1.89063 0.82812,2.82813 0.82813,0.9375 2.07813,0.9375 1.25,0 2.0625,-0.9375 0.82812,-0.95313 0.82812,-2.89063 0,-1.82812 -0.82812,-2.76562 -0.82813,-0.9375 -2.0625,-0.9375 -1.25,0 -2.07813,0.9375 -0.82812,0.9375 -0.82812,2.82812 z m 15.73509,4.92188 0,-1.45313 q -1.14063,1.67188 -3.125,1.67188 -0.85938,0 -1.625,-0.32813 -0.75,-0.34375 -1.125,-0.84375 -0.35938,-0.5 -0.51563,-1.23437 -0.0937,-0.5 -0.0937,-1.5625 l 0,-6.10938 1.67188,0 0,5.46875 q 0,1.3125 0.0937,1.76563 0.15625,0.65625 0.67187,1.03125 0.51563,0.375 1.26563,0.375 0.75,0 1.40625,-0.375 0.65625,-0.39063 0.92187,-1.04688 0.28125,-0.67187 0.28125,-1.9375 l 0,-5.28125 1.67188,0 0,9.85938 -1.5,0 z m 10.36009,-3.60938 1.64063,0.21875 q -0.26563,1.6875 -1.375,2.65625 -1.10938,0.95313 -2.73438,0.95313 -2.01562,0 -3.25,-1.3125 -1.21875,-1.32813 -1.21875,-3.79688 0,-1.59375 0.51563,-2.78125 0.53125,-1.20312 1.60937,-1.79687 1.09375,-0.60938 2.35938,-0.60938 1.60937,0 2.625,0.8125 1.01562,0.8125 1.3125,2.3125 l -1.625,0.25 q -0.23438,-1 -0.82813,-1.5 -0.59375,-0.5 -1.42187,-0.5 -1.26563,0 -2.0625,0.90625 -0.78125,0.90625 -0.78125,2.85938 0,1.98437 0.76562,2.89062 0.76563,0.89063 1.98438,0.89063 0.98437,0 1.64062,-0.59375 0.65625,-0.60938 0.84375,-1.85938 z m 2.89063,3.60938 0,-13.59375 1.67187,0 0,4.875 q 1.17188,-1.35938 2.95313,-1.35938 1.09375,0 1.89062,0.4375 0.8125,0.42188 1.15625,1.1875 0.35938,0.76563 0.35938,2.20313 l 0,6.25 -1.67188,0 0,-6.25 q 0,-1.25 -0.54687,-1.8125 -0.54688,-0.57813 -1.53125,-0.57813 -0.75,0 -1.40625,0.39063 -0.64063,0.375 -0.92188,1.04687 -0.28125,0.65625 -0.28125,1.8125 l 0,5.39063 -1.67187,0 z m 9.70384,-2.9375 1.65625,-0.26563 q 0.14062,1 0.76562,1.53125 0.64063,0.51563 1.78124,0.51563 1.15625,0 1.70312,-0.46875 0.5625,-0.46875 0.5625,-1.09375 0,-0.5625 -0.48437,-0.89063 -0.34375,-0.21875 -1.70313,-0.5625 -1.84373,-0.46875 -2.56248,-0.79687 -0.70313,-0.34375 -1.07813,-0.9375 -0.35937,-0.60938 -0.35937,-1.32813 0,-0.65625 0.29687,-1.21875 0.3125,-0.5625 0.82813,-0.9375 0.39062,-0.28125 1.0625,-0.48437 0.67187,-0.20313 1.43748,-0.20313 1.17188,0 2.04688,0.34375 0.875,0.32813 1.28125,0.90625 0.42187,0.5625 0.57812,1.51563 l -1.625,0.21875 q -0.10937,-0.75 -0.65625,-1.17188 -0.53125,-0.4375 -1.5,-0.4375 -1.15623,0 -1.64061,0.39063 -0.48437,0.375 -0.48437,0.875 0,0.32812 0.20312,0.59375 0.20313,0.26562 0.64063,0.4375 0.25,0.0937 1.46873,0.4375 1.76563,0.46875 2.46875,0.76562 0.70313,0.29688 1.09375,0.875 0.40625,0.57813 0.40625,1.4375 0,0.82813 -0.48437,1.57813 -0.48438,0.73437 -1.40625,1.14062 -0.92188,0.39063 -2.07813,0.39063 -1.92186,0 -2.93748,-0.79688 -1,-0.79687 -1.28125,-2.35937 z m 16.43748,-0.67188 1.64063,0.21875 q -0.26563,1.6875 -1.375,2.65625 -1.10938,0.95313 -2.73438,0.95313 -2.01562,0 -3.25,-1.3125 -1.21875,-1.32813 -1.21875,-3.79688 0,-1.59375 0.51563,-2.78125 0.53125,-1.20312 1.60937,-1.79687 1.09375,-0.60938 2.35938,-0.60938 1.60937,0 2.625,0.8125 1.01562,0.8125 1.3125,2.3125 l -1.625,0.25 q -0.23438,-1 -0.82813,-1.5 -0.59375,-0.5 -1.42187,-0.5 -1.26563,0 -2.0625,0.90625 -0.78125,0.90625 -0.78125,2.85938 0,1.98437 0.76562,2.89062 0.76563,0.89063 1.98438,0.89063 0.98437,0 1.64062,-0.59375 0.65625,-0.60938 0.84375,-1.85938 z m 2.875,3.60938 0,-9.85938 1.5,0 0,1.5 q 0.57813,-1.04687 1.0625,-1.375 0.48438,-0.34375 1.07813,-0.34375 0.84375,0 1.71875,0.54688 l -0.57813,1.54687 q -0.60937,-0.35937 -1.23437,-0.35937 -0.54688,0 -0.98438,0.32812 -0.42187,0.32813 -0.60937,0.90625 -0.28125,0.89063 -0.28125,1.95313 l 0,5.15625 -1.67188,0 z m 12.97831,-3.17188 1.71875,0.21875 q -0.40625,1.5 -1.51563,2.34375 -1.09375,0.82813 -2.8125,0.82813 -2.15625,0 -3.42187,-1.32813 -1.26563,-1.32812 -1.26563,-3.73437 0,-2.48438 1.26563,-3.85938 1.28125,-1.375 3.32812,-1.375 1.98438,0 3.23438,1.34375 1.25,1.34375 1.25,3.79688 0,0.14062 -0.0156,0.4375 l -7.34375,0 q 0.0937,1.625 0.92188,2.48437 0.82812,0.85938 2.0625,0.85938 0.90625,0 1.54687,-0.46875 0.65625,-0.48438 1.04688,-1.54688 z m -5.48438,-2.70312 5.5,0 q -0.10937,-1.23438 -0.625,-1.85938 -0.79687,-0.96875 -2.07812,-0.96875 -1.14063,0 -1.9375,0.78125 -0.78125,0.76563 -0.85938,2.04688 z m 15.86011,2.70312 1.71875,0.21875 q -0.40625,1.5 -1.51563,2.34375 -1.09375,0.82813 -2.8125,0.82813 -2.15625,0 -3.42187,-1.32813 -1.26563,-1.32812 -1.26563,-3.73437 0,-2.48438 1.26563,-3.85938 1.28125,-1.375 3.32812,-1.375 1.98438,0 3.23438,1.34375 1.25,1.34375 1.25,3.79688 0,0.14062 -0.0156,0.4375 l -7.34375,0 q 0.0937,1.625 0.92188,2.48437 0.82812,0.85938 2.0625,0.85938 0.90625,0 1.54687,-0.46875 0.65625,-0.48438 1.04688,-1.54688 z m -5.48438,-2.70312 5.5,0 q -0.10937,-1.23438 -0.625,-1.85938 -0.79687,-0.96875 -2.07812,-0.96875 -1.14063,0 -1.9375,0.78125 -0.78125,0.76563 -0.85938,2.04688 z m 9.11008,5.875 0,-9.85938 1.5,0 0,1.40625 q 1.09375,-1.625 3.14062,-1.625 0.89063,0 1.64063,0.32813 0.75,0.3125 1.10937,0.84375 0.375,0.51562 0.53125,1.21875 0.0937,0.46875 0.0937,1.625 l 0,6.0625 -1.67187,0 0,-6 q 0,-1.01563 -0.20313,-1.51563 -0.1875,-0.51562 -0.6875,-0.8125 -0.5,-0.29687 -1.17187,-0.29687 -1.0625,0 -1.84375,0.67187 -0.76563,0.67188 -0.76563,2.57813 l 0,5.375 -1.67187,0 z"
       id="path15"
       inkscape:connector-curvature="0"
       style="fill:#000000;fill-rule:nonzero" />
    <path
       d="m 125.4977,135.26645 0,-13.59374 1.8125,0 0,13.59374 -1.8125,0 z m 4.66769,0 0,-9.85937 1.5,0 0,1.40625 q 1.09375,-1.625 3.14062,-1.625 0.89063,0 1.64063,0.32813 0.75,0.3125 1.10937,0.84375 0.375,0.51562 0.53125,1.21875 0.0937,0.46874 0.0937,1.62499 l 0,6.0625 -1.67187,0 0,-6 q 0,-1.01562 -0.20313,-1.51562 -0.1875,-0.51562 -0.6875,-0.8125 -0.5,-0.29687 -1.17187,-0.29687 -1.0625,0 -1.84375,0.67187 -0.76563,0.67188 -0.76563,2.57812 l 0,5.375 -1.67187,0 z m 14.03196,-1.5 0.23438,1.48437 q -0.70313,0.14063 -1.26563,0.14063 -0.90625,0 -1.40625,-0.28125 -0.5,-0.29688 -0.70312,-0.75 -0.20313,-0.46875 -0.20313,-1.98438 l 0,-5.65624 -1.23437,0 0,-1.3125 1.23437,0 0,-2.4375 1.65625,-1 0,3.4375 1.6875,0 0,1.3125 -1.6875,0 0,5.74999 q 0,0.71875 0.0781,0.92188 0.0937,0.20312 0.29687,0.32812 0.20313,0.125 0.57813,0.125 0.26562,0 0.73437,-0.0781 z m 8.27706,-1.67188 1.71875,0.21875 q -0.40625,1.5 -1.51563,2.34375 -1.09375,0.82813 -2.8125,0.82813 -2.15625,0 -3.42187,-1.32813 -1.26563,-1.32812 -1.26563,-3.73437 0,-2.48437 1.26563,-3.85937 1.28125,-1.375 3.32812,-1.375 1.98438,0 3.23438,1.34375 1.25,1.34375 1.25,3.79687 0,0.14062 -0.0156,0.4375 l -7.34375,0 q 0.0937,1.625 0.92188,2.48437 0.82812,0.85938 2.0625,0.85938 0.90625,0 1.54687,-0.46875 0.65625,-0.48438 1.04688,-1.54688 z m -5.48438,-2.70312 5.5,0 q -0.10937,-1.23438 -0.625,-1.85937 -0.79687,-0.96875 -2.07812,-0.96875 -1.14063,0 -1.9375,0.78125 -0.78125,0.76562 -0.85938,2.04687 z m 9.09447,5.875 0,-9.85937 1.5,0 0,1.5 q 0.57812,-1.04687 1.0625,-1.375 0.48437,-0.34375 1.07812,-0.34375 0.84375,0 1.71875,0.54688 l -0.57812,1.54687 q -0.60938,-0.35937 -1.23438,-0.35937 -0.54687,0 -0.98437,0.32812 -0.42188,0.32813 -0.60938,0.90625 -0.28125,0.89062 -0.28125,1.95312 l 0,5.15625 -1.67187,0 z m 6.63455,0 0,-8.54687 -1.48437,0 0,-1.3125 1.48437,0 0,-1.04687 q 0,-0.98438 0.17188,-1.46875 0.23437,-0.65625 0.84375,-1.04688 0.60937,-0.40625 1.70312,-0.40625 0.70313,0 1.5625,0.15625 l -0.25,1.46875 q -0.51562,-0.0937 -0.98437,-0.0937 -0.76563,0 -1.07813,0.32813 -0.3125,0.3125 -0.3125,1.20312 l 0,0.90625 1.92188,0 0,1.3125 -1.92188,0 0,8.54687 -1.65625,0 z m 11.21456,-1.21875 q -0.9375,0.79687 -1.79688,1.125 -0.85937,0.3125 -1.84375,0.3125 -1.60937,0 -2.48437,-0.78125 -0.875,-0.79688 -0.875,-2.03125 0,-0.73438 0.32812,-1.32813 0.32813,-0.59375 0.85938,-0.95312 0.53125,-0.35938 1.20312,-0.54688 0.5,-0.14062 1.48438,-0.25 2.03125,-0.25 2.98437,-0.57812 0,-0.34375 0,-0.4375 0,-1.01562 -0.46875,-1.43749 -0.64062,-0.5625 -1.90625,-0.5625 -1.17187,0 -1.73437,0.40625 -0.5625,0.40625 -0.82813,1.46874 l -1.64062,-0.23438 q 0.23437,-1.04686 0.73437,-1.68749 0.51563,-0.64062 1.46875,-0.98437 0.96875,-0.35938 2.25,-0.35938 1.26563,0 2.04688,0.29688 0.78125,0.29687 1.15625,0.75 0.375,0.45312 0.51562,1.14062 0.0937,0.42188 0.0937,1.53124 l 0,2.23438 q 0,2.32812 0.0937,2.95312 0.10938,0.60938 0.4375,1.17188 l -1.75,0 q -0.26562,-0.51563 -0.32812,-1.21875 z m -0.14063,-3.71875 q -0.90625,0.35937 -2.73437,0.625 -1.03125,0.14062 -1.45313,0.32812 -0.42187,0.1875 -0.65625,0.54688 -0.23437,0.35937 -0.23437,0.79687 0,0.67188 0.5,1.125 0.51562,0.4375 1.48437,0.4375 0.96875,0 1.71875,-0.42187 0.75,-0.4375 1.10938,-1.15625 0.26562,-0.57813 0.26562,-1.67188 l 0,-0.60937 z m 10.51634,1.32812 1.64063,0.21875 q -0.26563,1.6875 -1.375,2.65625 -1.10938,0.95313 -2.73438,0.95313 -2.01562,0 -3.25,-1.3125 -1.21875,-1.32813 -1.21875,-3.79688 0,-1.59375 0.51563,-2.78124 0.53125,-1.20312 1.60937,-1.79687 1.09375,-0.60938 2.35938,-0.60938 1.60937,0 2.625,0.8125 1.01562,0.8125 1.3125,2.31249 l -1.625,0.25 q -0.23438,-0.99999 -0.82813,-1.49999 -0.59375,-0.5 -1.42187,-0.5 -1.26563,0 -2.0625,0.90625 -0.78125,0.90624 -0.78125,2.85937 0,1.98437 0.76562,2.89062 0.76563,0.89063 1.98438,0.89063 0.98437,0 1.64062,-0.59375 0.65625,-0.60938 0.84375,-1.85938 z m 9.64063,0.4375 1.71875,0.21875 q -0.40625,1.5 -1.51563,2.34375 -1.09375,0.82813 -2.8125,0.82813 -2.15625,0 -3.42187,-1.32813 -1.26563,-1.32812 -1.26563,-3.73437 0,-2.48437 1.26563,-3.85937 1.28125,-1.375 3.32812,-1.375 1.98438,0 3.23438,1.34375 1.25,1.34375 1.25,3.79687 0,0.14062 -0.0156,0.4375 l -7.34375,0 q 0.0937,1.625 0.92188,2.48437 0.82812,0.85938 2.0625,0.85938 0.90625,0 1.54687,-0.46875 0.65625,-0.48438 1.04688,-1.54688 z m -5.48438,-2.70312 5.5,0 q -0.10937,-1.23438 -0.625,-1.85937 -0.79687,-0.96875 -2.07812,-0.96875 -1.14063,0 -1.9375,0.78125 -0.78125,0.76562 -0.85938,2.04687 z"
       id="path17"
       inkscape:connector-curvature="0"
       style="fill:#000000;fill-rule:nonzero" />
    <path
       d="m 63.00525,194.42783 194.04724,0 0,52.03149 -194.04724,0 z"
       id="path19"
       inkscape:connector-curvature="0"
       style="fill:#eeeeee;fill-rule:evenodd" />
    <path
       d="m 63.00525,194.42783 194.04724,0 0,52.03149 -194.04724,0 z"
       id="path21"
       inkscape:connector-curvature="0"
       style="fill-rule:evenodd;stroke:#595959;stroke-width:1;stroke-linecap:butt;stroke-linejoin:round" />
    <path
       d="m 109.39672,216.36357 -5.28125,-13.59375 1.95313,0 3.53125,9.875 q 0.4375,1.1875 0.71875,2.21875 0.3125,-1.10938 0.73437,-2.21875 l 3.67188,-9.875 1.84375,0 -5.32813,13.59375 -1.84375,0 z m 8.34982,-11.6875 0,-1.90625 1.67188,0 0,1.90625 -1.67188,0 z m 0,11.6875 0,-9.85938 1.67188,0 0,9.85938 -1.67188,0 z m 4.11357,0 0,-9.85938 1.5,0 0,1.5 q 0.57813,-1.04687 1.0625,-1.375 0.48438,-0.34375 1.07813,-0.34375 0.84375,0 1.71875,0.54688 l -0.57813,1.54687 q -0.60937,-0.35937 -1.23437,-0.35937 -0.54688,0 -0.98438,0.32812 -0.42187,0.32813 -0.60937,0.90625 -0.28125,0.89063 -0.28125,1.95313 l 0,5.15625 -1.67188,0 z m 9.88456,-1.5 0.23438,1.48437 q -0.70313,0.14063 -1.26563,0.14063 -0.90625,0 -1.40625,-0.28125 -0.5,-0.29688 -0.70312,-0.75 -0.20313,-0.46875 -0.20313,-1.98438 l 0,-5.65625 -1.23438,0 0,-1.3125 1.23438,0 0,-2.4375 1.65625,-1 0,3.4375 1.6875,0 0,1.3125 -1.6875,0 0,5.75 q 0,0.71875 0.0781,0.92188 0.0937,0.20312 0.29687,0.32812 0.20313,0.125 0.57813,0.125 0.26562,0 0.73437,-0.0781 z m 7.98018,1.5 0,-1.45313 q -1.14062,1.67188 -3.125,1.67188 -0.85937,0 -1.625,-0.32813 -0.75,-0.34375 -1.125,-0.84375 -0.35937,-0.5 -0.51562,-1.23437 -0.0937,-0.5 -0.0937,-1.5625 l 0,-6.10938 1.67187,0 0,5.46875 q 0,1.3125 0.0937,1.76563 0.15625,0.65625 0.67188,1.03125 0.51562,0.375 1.26562,0.375 0.75,0 1.40625,-0.375 0.65625,-0.39063 0.92188,-1.04688 0.28125,-0.67187 0.28125,-1.9375 l 0,-5.28125 1.67187,0 0,9.85938 -1.5,0 z m 10.36009,-1.21875 q -0.9375,0.79687 -1.79687,1.125 -0.85938,0.3125 -1.84375,0.3125 -1.60938,0 -2.48438,-0.78125 -0.875,-0.79688 -0.875,-2.03125 0,-0.73438 0.32813,-1.32813 0.32812,-0.59375 0.85937,-0.95312 0.53125,-0.35938 1.20313,-0.54688 0.5,-0.14062 1.48437,-0.25 2.03125,-0.25 2.98438,-0.57812 0,-0.34375 0,-0.4375 0,-1.01563 -0.46875,-1.4375 -0.64063,-0.5625 -1.90625,-0.5625 -1.17188,0 -1.73438,0.40625 -0.5625,0.40625 -0.82812,1.46875 l -1.64063,-0.23438 q 0.23438,-1.04687 0.73438,-1.6875 0.51562,-0.64062 1.46875,-0.98437 0.96875,-0.35938 2.25,-0.35938 1.26562,0 2.04687,0.29688 0.78125,0.29687 1.15625,0.75 0.375,0.45312 0.51563,1.14062 0.0937,0.42188 0.0937,1.53125 l 0,2.23438 q 0,2.32812 0.0937,2.95312 0.10937,0.60938 0.4375,1.17188 l -1.75,0 q -0.26563,-0.51563 -0.32813,-1.21875 z m -0.14062,-3.71875 q -0.90625,0.35937 -2.73438,0.625 -1.03125,0.14062 -1.45312,0.32812 -0.42188,0.1875 -0.65625,0.54688 -0.23438,0.35937 -0.23438,0.79687 0,0.67188 0.5,1.125 0.51563,0.4375 1.48438,0.4375 0.96875,0 1.71875,-0.42187 0.75,-0.4375 1.10937,-1.15625 0.26563,-0.57813 0.26563,-1.67188 l 0,-0.60937 z m 4.04759,4.9375 0,-13.59375 1.67188,0 0,13.59375 -1.67188,0 z m 13.03125,0 0,-12 -4.46875,0 0,-1.59375 10.76563,0 0,1.59375 -4.5,0 0,12 -1.79688,0 z m 14.16161,-1.21875 q -0.9375,0.79687 -1.79688,1.125 -0.85937,0.3125 -1.84375,0.3125 -1.60937,0 -2.48437,-0.78125 -0.875,-0.79688 -0.875,-2.03125 0,-0.73438 0.32812,-1.32813 0.32813,-0.59375 0.85938,-0.95312 0.53125,-0.35938 1.20312,-0.54688 0.5,-0.14062 1.48438,-0.25 2.03125,-0.25 2.98437,-0.57812 0,-0.34375 0,-0.4375 0,-1.01563 -0.46875,-1.4375 -0.64062,-0.5625 -1.90625,-0.5625 -1.17187,0 -1.73437,0.40625 -0.5625,0.40625 -0.82813,1.46875 l -1.64062,-0.23438 q 0.23437,-1.04687 0.73437,-1.6875 0.51563,-0.64062 1.46875,-0.98437 0.96875,-0.35938 2.25,-0.35938 1.26563,0 2.04688,0.29688 0.78125,0.29687 1.15625,0.75 0.375,0.45312 0.51562,1.14062 0.0937,0.42188 0.0937,1.53125 l 0,2.23438 q 0,2.32812 0.0937,2.95312 0.10938,0.60938 0.4375,1.17188 l -1.75,0 q -0.26562,-0.51563 -0.32812,-1.21875 z m -0.14063,-3.71875 q -0.90625,0.35937 -2.73437,0.625 -1.03125,0.14062 -1.45313,0.32812 -0.42187,0.1875 -0.65625,0.54688 -0.23437,0.35937 -0.23437,0.79687 0,0.67188 0.5,1.125 0.51562,0.4375 1.48437,0.4375 0.96875,0 1.71875,-0.42187 0.75,-0.4375 1.10938,-1.15625 0.26562,-0.57813 0.26562,-1.67188 l 0,-0.60937 z m 4.06322,4.9375 0,-9.85938 1.5,0 0,1.5 q 0.57813,-1.04687 1.0625,-1.375 0.48438,-0.34375 1.07813,-0.34375 0.84375,0 1.71875,0.54688 l -0.57813,1.54687 q -0.60937,-0.35937 -1.23437,-0.35937 -0.54688,0 -0.98438,0.32812 -0.42187,0.32813 -0.60937,0.90625 -0.28125,0.89063 -0.28125,1.95313 l 0,5.15625 -1.67188,0 z m 5.93143,0.8125 1.60937,0.25 q 0.10938,0.75 0.57813,1.09375 0.60937,0.45312 1.6875,0.45312 1.17187,0 1.79687,-0.46875 0.625,-0.45312 0.85938,-1.28125 0.125,-0.51562 0.10937,-2.15625 -1.09375,1.29688 -2.71875,1.29688 -2.03125,0 -3.15625,-1.46875 -1.10937,-1.46875 -1.10937,-3.51563 0,-1.40625 0.51562,-2.59375 0.51563,-1.20312 1.48438,-1.84375 0.96875,-0.65625 2.26562,-0.65625 1.75,0 2.875,1.40625 l 0,-1.1875 1.54688,0 0,8.51563 q 0,2.3125 -0.46875,3.26562 -0.46875,0.96875 -1.48438,1.51563 -1.01562,0.5625 -2.5,0.5625 -1.76562,0 -2.85937,-0.79688 -1.07813,-0.79687 -1.03125,-2.39062 z m 1.375,-5.92188 q 0,1.95313 0.76562,2.84375 0.78125,0.89063 1.9375,0.89063 1.14063,0 1.92188,-0.89063 0.78125,-0.89062 0.78125,-2.78125 0,-1.8125 -0.8125,-2.71875 -0.79688,-0.92187 -1.92188,-0.92187 -1.10937,0 -1.89062,0.90625 -0.78125,0.89062 -0.78125,2.67187 z m 16.04757,1.9375 1.71875,0.21875 q -0.40625,1.5 -1.51562,2.34375 -1.09375,0.82813 -2.8125,0.82813 -2.15625,0 -3.42188,-1.32813 -1.26562,-1.32812 -1.26562,-3.73437 0,-2.48438 1.26562,-3.85938 1.28125,-1.375 3.32813,-1.375 1.98437,0 3.23437,1.34375 1.25,1.34375 1.25,3.79688 0,0.14062 -0.0156,0.4375 l -7.34375,0 q 0.0937,1.625 0.92187,2.48437 0.82813,0.85938 2.0625,0.85938 0.90625,0 1.54688,-0.46875 0.65625,-0.48438 1.04687,-1.54688 z m -5.48437,-2.70312 5.5,0 q -0.10938,-1.23438 -0.625,-1.85938 -0.79688,-0.96875 -2.07813,-0.96875 -1.14062,0 -1.9375,0.78125 -0.78125,0.76563 -0.85937,2.04688 z m 12.76636,4.375 0.23437,1.48437 q -0.70312,0.14063 -1.26562,0.14063 -0.90625,0 -1.40625,-0.28125 -0.5,-0.29688 -0.70313,-0.75 -0.20312,-0.46875 -0.20312,-1.98438 l 0,-5.65625 -1.23438,0 0,-1.3125 1.23438,0 0,-2.4375 1.65625,-1 0,3.4375 1.6875,0 0,1.3125 -1.6875,0 0,5.75 q 0,0.71875 0.0781,0.92188 0.0937,0.20312 0.29688,0.32812 0.20312,0.125 0.57812,0.125 0.26563,0 0.73438,-0.0781 z"
       id="path23"
       inkscape:connector-curvature="0"
       style="fill:#000000;fill-rule:nonzero" />
    <path
       d="m 125.85766,233.03545 0,-1.60938 5.76563,0 0,5.04688 q -1.32812,1.0625 -2.75,1.59375 -1.40626,0.53125 -2.89063,0.53125 -2,0 -3.64063,-0.85938 -1.625,-0.85937 -2.46875,-2.48437 -0.82812,-1.625 -0.82812,-3.625 0,-1.98438 0.82812,-3.70313 0.82813,-1.71875 2.39063,-2.54687 1.5625,-0.84375 3.59375,-0.84375 1.46875,0 2.65626,0.48437 1.20312,0.46875 1.875,1.32813 0.67187,0.84375 1.03125,2.21875 l -1.625,0.4375 q -0.3125,-1.03125 -0.76563,-1.625 -0.45312,-0.59375 -1.29688,-0.95313 -0.84375,-0.35937 -1.875,-0.35937 -1.23438,0 -2.14063,0.375 -0.89062,0.375 -1.45312,1 -0.54688,0.60937 -0.84375,1.34375 -0.53125,1.25 -0.53125,2.73437 0,1.8125 0.625,3.04688 0.64062,1.21875 1.82812,1.8125 1.20313,0.59375 2.54688,0.59375 1.17187,0 2.28126,-0.45313 1.10937,-0.45312 1.6875,-0.95312 l 0,-2.53125 -4.00001,0 z m 14.68331,2.15625 1.71875,0.21875 q -0.40625,1.5 -1.51562,2.34375 -1.09375,0.82812 -2.8125,0.82812 -2.15625,0 -3.42188,-1.32812 -1.26562,-1.32813 -1.26562,-3.73438 0,-2.48437 1.26562,-3.85937 1.28125,-1.375 3.32813,-1.375 1.98437,0 3.23437,1.34375 1.25,1.34375 1.25,3.79687 0,0.14063 -0.0156,0.4375 l -7.34375,0 q 0.0937,1.625 0.92187,2.48438 0.82813,0.85937 2.0625,0.85937 0.90625,0 1.54688,-0.46875 0.65625,-0.48437 1.04687,-1.54687 z m -5.48437,-2.70313 5.5,0 q -0.10938,-1.23437 -0.625,-1.85937 -0.79688,-0.96875 -2.07813,-0.96875 -1.14062,0 -1.9375,0.78125 -0.78125,0.76562 -0.85937,2.04687 z m 9.11009,5.875 0,-9.85937 1.5,0 0,1.40625 q 1.09375,-1.625 3.14062,-1.625 0.89063,0 1.64063,0.32812 0.75,0.3125 1.10937,0.84375 0.375,0.51563 0.53125,1.21875 0.0937,0.46875 0.0937,1.625 l 0,6.0625 -1.67187,0 0,-6 q 0,-1.01562 -0.20313,-1.51562 -0.1875,-0.51563 -0.6875,-0.8125 -0.5,-0.29688 -1.17187,-0.29688 -1.0625,0 -1.84375,0.67188 -0.76563,0.67187 -0.76563,2.57812 l 0,5.375 -1.67187,0 z m 17.12571,-3.17187 1.71875,0.21875 q -0.40625,1.5 -1.51562,2.34375 -1.09375,0.82812 -2.8125,0.82812 -2.15625,0 -3.42188,-1.32812 -1.26562,-1.32813 -1.26562,-3.73438 0,-2.48437 1.26562,-3.85937 1.28125,-1.375 3.32813,-1.375 1.98437,0 3.23437,1.34375 1.25,1.34375 1.25,3.79687 0,0.14063 -0.0156,0.4375 l -7.34375,0 q 0.0937,1.625 0.92187,2.48438 0.82813,0.85937 2.0625,0.85937 0.90625,0 1.54688,-0.46875 0.65625,-0.48437 1.04687,-1.54687 z m -5.48437,-2.70313 5.5,0 q -0.10938,-1.23437 -0.625,-1.85937 -0.79688,-0.96875 -2.07813,-0.96875 -1.14062,0 -1.9375,0.78125 -0.78125,0.76562 -0.85937,2.04687 z m 9.09447,5.875 0,-9.85937 1.5,0 0,1.5 q 0.57812,-1.04688 1.0625,-1.375 0.48437,-0.34375 1.07812,-0.34375 0.84375,0 1.71875,0.54687 l -0.57812,1.54688 q -0.60938,-0.35938 -1.23438,-0.35938 -0.54687,0 -0.98437,0.32813 -0.42188,0.32812 -0.60938,0.90625 -0.28125,0.89062 -0.28125,1.95312 l 0,5.15625 -1.67187,0 z m 12.6658,-1.21875 q -0.9375,0.79688 -1.79688,1.125 -0.85937,0.3125 -1.84375,0.3125 -1.60937,0 -2.48437,-0.78125 -0.875,-0.79687 -0.875,-2.03125 0,-0.73437 0.32812,-1.32812 0.32813,-0.59375 0.85938,-0.95313 0.53125,-0.35937 1.20312,-0.54687 0.5,-0.14063 1.48438,-0.25 2.03125,-0.25 2.98437,-0.57813 0,-0.34375 0,-0.4375 0,-1.01562 -0.46875,-1.4375 -0.64062,-0.5625 -1.90625,-0.5625 -1.17187,0 -1.73437,0.40625 -0.5625,0.40625 -0.82813,1.46875 l -1.64062,-0.23437 q 0.23437,-1.04688 0.73437,-1.6875 0.51563,-0.64063 1.46875,-0.98438 0.96875,-0.35937 2.25,-0.35937 1.26563,0 2.04688,0.29687 0.78125,0.29688 1.15625,0.75 0.375,0.45313 0.51562,1.14063 0.0937,0.42187 0.0937,1.53125 l 0,2.23437 q 0,2.32813 0.0937,2.95313 0.10938,0.60937 0.4375,1.17187 l -1.75,0 q -0.26562,-0.51562 -0.32812,-1.21875 z m -0.14063,-3.71875 q -0.90625,0.35938 -2.73437,0.625 -1.03125,0.14063 -1.45313,0.32813 -0.42187,0.1875 -0.65625,0.54687 -0.23437,0.35938 -0.23437,0.79688 0,0.67187 0.5,1.125 0.51562,0.4375 1.48437,0.4375 0.96875,0 1.71875,-0.42188 0.75,-0.4375 1.10938,-1.15625 0.26562,-0.57812 0.26562,-1.67187 l 0,-0.60938 z m 7.7351,3.4375 0.23437,1.48438 q -0.70312,0.14062 -1.26562,0.14062 -0.90625,0 -1.40625,-0.28125 -0.5,-0.29687 -0.70313,-0.75 -0.20312,-0.46875 -0.20312,-1.98437 l 0,-5.65625 -1.23438,0 0,-1.3125 1.23438,0 0,-2.4375 1.65625,-1 0,3.4375 1.6875,0 0,1.3125 -1.6875,0 0,5.75 q 0,0.71875 0.0781,0.92187 0.0937,0.20313 0.29688,0.32813 0.20312,0.125 0.57812,0.125 0.26563,0 0.73438,-0.0781 z m 0.90205,-3.42187 q 0,-2.73438 1.53125,-4.0625 1.26562,-1.09375 3.09375,-1.09375 2.03125,0 3.3125,1.34375 1.29687,1.32812 1.29687,3.67187 0,1.90625 -0.57812,3 -0.5625,1.07813 -1.65625,1.6875 -1.07813,0.59375 -2.375,0.59375 -2.0625,0 -3.34375,-1.32812 -1.28125,-1.32813 -1.28125,-3.8125 z m 1.71875,0 q 0,1.89062 0.82812,2.82812 0.82813,0.9375 2.07813,0.9375 1.25,0 2.0625,-0.9375 0.82812,-0.95312 0.82812,-2.89062 0,-1.82813 -0.82812,-2.76563 -0.82813,-0.9375 -2.0625,-0.9375 -1.25,0 -2.07813,0.9375 -0.82812,0.9375 -0.82812,2.82813 z m 9.26633,4.92187 0,-9.85937 1.5,0 0,1.5 q 0.57812,-1.04688 1.0625,-1.375 0.48437,-0.34375 1.07812,-0.34375 0.84375,0 1.71875,0.54687 l -0.57812,1.54688 q -0.60938,-0.35938 -1.23438,-0.35938 -0.54687,0 -0.98437,0.32813 -0.42188,0.32812 -0.60938,0.90625 -0.28125,0.89062 -0.28125,1.95312 l 0,5.15625 -1.67187,0 z"
       id="path25"
       inkscape:connector-curvature="0"
       style="fill:#000000;fill-rule:nonzero" />
    <path
       d="m 361.14697,194.42783 194.04724,0 0,52.03149 -194.04724,0 z"
       id="path27"
       inkscape:connector-curvature="0"
       style="fill:#eeeeee;fill-rule:evenodd" />
    <path
       d="m 361.14697,194.42783 194.04724,0 0,52.03149 -194.04724,0 z"
       id="path29"
       inkscape:connector-curvature="0"
       style="fill-rule:evenodd;stroke:#595959;stroke-width:1;stroke-linecap:butt;stroke-linejoin:round" />
    <path
       d="m 404.05872,211.98857 1.6875,-0.14063 q 0.125,1.01563 0.5625,1.67188 0.4375,0.65625 1.35937,1.0625 0.9375,0.40625 2.09375,0.40625 1.03125,0 1.8125,-0.3125 0.79688,-0.3125 1.1875,-0.84375 0.39063,-0.53125 0.39063,-1.15625 0,-0.64063 -0.375,-1.10938 -0.375,-0.48437 -1.23438,-0.8125 -0.54687,-0.21875 -2.42187,-0.65625 -1.875,-0.45312 -2.625,-0.85937 -0.96875,-0.51563 -1.45313,-1.26563 -0.46875,-0.75 -0.46875,-1.6875 0,-1.03125 0.57813,-1.92187 0.59375,-0.90625 1.70312,-1.35938 1.125,-0.46875 2.5,-0.46875 1.51563,0 2.67188,0.48438 1.15625,0.48437 1.76562,1.4375 0.625,0.9375 0.67188,2.14062 l -1.71875,0.125 q -0.14063,-1.28125 -0.95313,-1.9375 -0.79687,-0.67187 -2.35937,-0.67187 -1.625,0 -2.375,0.60937 -0.75,0.59375 -0.75,1.4375 0,0.73438 0.53125,1.20313 0.51562,0.46875 2.70312,0.96875 2.20313,0.5 3.01563,0.875 1.1875,0.54687 1.75,1.39062 0.57812,0.82813 0.57812,1.92188 0,1.09375 -0.625,2.0625 -0.625,0.95312 -1.79687,1.48437 -1.15625,0.53125 -2.60938,0.53125 -1.84375,0 -3.09375,-0.53125 -1.25,-0.54687 -1.96875,-1.625 -0.70312,-1.07812 -0.73437,-2.45312 z m 12.8342,8.15625 0,-13.64063 1.53125,0 0,1.28125 q 0.53125,-0.75 1.20312,-1.125 0.6875,-0.375 1.64063,-0.375 1.26562,0 2.23437,0.65625 0.96875,0.64063 1.45313,1.82813 0.5,1.1875 0.5,2.59375 0,1.51562 -0.54688,2.73437 -0.54687,1.20313 -1.57812,1.84375 -1.03125,0.64063 -2.17188,0.64063 -0.84375,0 -1.51562,-0.34375 -0.65625,-0.35938 -1.07813,-0.89063 l 0,4.79688 -1.67187,0 z m 1.51562,-8.65625 q 0,1.90625 0.76563,2.8125 0.78125,0.90625 1.875,0.90625 1.10937,0 1.89062,-0.9375 0.79688,-0.9375 0.79688,-2.92188 0,-1.875 -0.78125,-2.8125 -0.76563,-0.9375 -1.84375,-0.9375 -1.0625,0 -1.89063,1 -0.8125,1 -0.8125,2.89063 z m 15.29761,3.65625 q -0.9375,0.79687 -1.79688,1.125 -0.85937,0.3125 -1.84375,0.3125 -1.60937,0 -2.48437,-0.78125 -0.875,-0.79688 -0.875,-2.03125 0,-0.73438 0.32812,-1.32813 0.32813,-0.59375 0.85938,-0.95312 0.53125,-0.35938 1.20312,-0.54688 0.5,-0.14062 1.48438,-0.25 2.03125,-0.25 2.98437,-0.57812 0,-0.34375 0,-0.4375 0,-1.01563 -0.46875,-1.4375 -0.64062,-0.5625 -1.90625,-0.5625 -1.17187,0 -1.73437,0.40625 -0.5625,0.40625 -0.82813,1.46875 l -1.64062,-0.23438 q 0.23437,-1.04687 0.73437,-1.6875 0.51563,-0.64062 1.46875,-0.98437 0.96875,-0.35938 2.25,-0.35938 1.26563,0 2.04688,0.29688 0.78125,0.29687 1.15625,0.75 0.375,0.45312 0.51562,1.14062 0.0937,0.42188 0.0937,1.53125 l 0,2.23438 q 0,2.32812 0.0937,2.95312 0.10938,0.60938 0.4375,1.17188 l -1.75,0 q -0.26562,-0.51563 -0.32812,-1.21875 z m -0.14063,-3.71875 q -0.90625,0.35937 -2.73437,0.625 -1.03125,0.14062 -1.45313,0.32812 -0.42187,0.1875 -0.65625,0.54688 -0.23437,0.35937 -0.23437,0.79687 0,0.67188 0.5,1.125 0.51562,0.4375 1.48437,0.4375 0.96875,0 1.71875,-0.42187 0.75,-0.4375 1.10938,-1.15625 0.26562,-0.57813 0.26562,-1.67188 l 0,-0.60937 z m 7.73508,3.4375 0.23438,1.48437 q -0.70313,0.14063 -1.26563,0.14063 -0.90625,0 -1.40625,-0.28125 -0.5,-0.29688 -0.70312,-0.75 -0.20313,-0.46875 -0.20313,-1.98438 l 0,-5.65625 -1.23437,0 0,-1.3125 1.23437,0 0,-2.4375 1.65625,-1 0,3.4375 1.6875,0 0,1.3125 -1.6875,0 0,5.75 q 0,0.71875 0.0781,0.92188 0.0937,0.20312 0.29687,0.32812 0.20313,0.125 0.57813,0.125 0.26562,0 0.73437,-0.0781 z m 1.5427,-10.1875 0,-1.90625 1.67187,0 0,1.90625 -1.67187,0 z m 0,11.6875 0,-9.85938 1.67187,0 0,9.85938 -1.67187,0 z m 10.56668,-1.21875 q -0.9375,0.79687 -1.79688,1.125 -0.85937,0.3125 -1.84375,0.3125 -1.60937,0 -2.48437,-0.78125 -0.875,-0.79688 -0.875,-2.03125 0,-0.73438 0.32812,-1.32813 0.32813,-0.59375 0.85938,-0.95312 0.53125,-0.35938 1.20312,-0.54688 0.5,-0.14062 1.48438,-0.25 2.03125,-0.25 2.98437,-0.57812 0,-0.34375 0,-0.4375 0,-1.01563 -0.46875,-1.4375 -0.64062,-0.5625 -1.90625,-0.5625 -1.17187,0 -1.73437,0.40625 -0.5625,0.40625 -0.82813,1.46875 l -1.64062,-0.23438 q 0.23437,-1.04687 0.73437,-1.6875 0.51563,-0.64062 1.46875,-0.98437 0.96875,-0.35938 2.25,-0.35938 1.26563,0 2.04688,0.29688 0.78125,0.29687 1.15625,0.75 0.375,0.45312 0.51562,1.14062 0.0937,0.42188 0.0937,1.53125 l 0,2.23438 q 0,2.32812 0.0937,2.95312 0.10938,0.60938 0.4375,1.17188 l -1.75,0 q -0.26562,-0.51563 -0.32812,-1.21875 z m -0.14063,-3.71875 q -0.90625,0.35937 -2.73437,0.625 -1.03125,0.14062 -1.45313,0.32812 -0.42187,0.1875 -0.65625,0.54688 -0.23437,0.35937 -0.23437,0.79687 0,0.67188 0.5,1.125 0.51562,0.4375 1.48437,0.4375 0.96875,0 1.71875,-0.42187 0.75,-0.4375 1.10938,-1.15625 0.26562,-0.57813 0.26562,-1.67188 l 0,-0.60937 z m 4.04761,4.9375 0,-13.59375 1.67187,0 0,13.59375 -1.67187,0 z m 8.07812,0 5.23438,-13.59375 1.9375,0 5.5625,13.59375 -2.04688,0 -1.59375,-4.125 -5.6875,0 -1.48437,4.125 -1.92188,0 z m 3.92188,-5.57813 4.60937,0 -1.40625,-3.78125 q -0.65625,-1.70312 -0.96875,-2.8125 -0.26562,1.3125 -0.73437,2.59375 l -1.5,4 z m 16.25607,5.57813 0,-1.45313 q -1.14062,1.67188 -3.125,1.67188 -0.85937,0 -1.625,-0.32813 -0.75,-0.34375 -1.125,-0.84375 -0.35937,-0.5 -0.51562,-1.23437 -0.0937,-0.5 -0.0937,-1.5625 l 0,-6.10938 1.67187,0 0,5.46875 q 0,1.3125 0.0937,1.76563 0.15625,0.65625 0.67188,1.03125 0.51562,0.375 1.26562,0.375 0.75,0 1.40625,-0.375 0.65625,-0.39063 0.92188,-1.04688 0.28125,-0.67187 0.28125,-1.9375 l 0,-5.28125 1.67187,0 0,9.85938 -1.5,0 z m 10.3132,0 0,-1.25 q -0.9375,1.46875 -2.75,1.46875 -1.17187,0 -2.17187,-0.64063 -0.98438,-0.65625 -1.53125,-1.8125 -0.53125,-1.17187 -0.53125,-2.6875 0,-1.46875 0.48437,-2.67187 0.5,-1.20313 1.46875,-1.84375 0.98438,-0.64063 2.20313,-0.64063 0.89062,0 1.57812,0.375 0.70313,0.375 1.14063,0.98438 l 0,-4.875 1.65625,0 0,13.59375 -1.54688,0 z m -5.28125,-4.92188 q 0,1.89063 0.79688,2.82813 0.8125,0.9375 1.89062,0.9375 1.09375,0 1.85938,-0.89063 0.76562,-0.89062 0.76562,-2.73437 0,-2.01563 -0.78125,-2.95313 -0.78125,-0.95312 -1.92187,-0.95312 -1.10938,0 -1.85938,0.90625 -0.75,0.90625 -0.75,2.85937 z m 9.28196,-6.76562 0,-1.90625 1.67187,0 0,1.90625 -1.67187,0 z m 0,11.6875 0,-9.85938 1.67187,0 0,9.85938 -1.67187,0 z m 3.50421,-4.92188 q 0,-2.73437 1.53125,-4.0625 1.26562,-1.09375 3.09375,-1.09375 2.03125,0 3.3125,1.34375 1.2969,1.32813 1.2969,3.67188 0,1.90625 -0.57812,3 -0.56253,1.07812 -1.65628,1.6875 -1.07813,0.59375 -2.375,0.59375 -2.0625,0 -3.34375,-1.32813 -1.28125,-1.32812 -1.28125,-3.8125 z m 1.71875,0 q 0,1.89063 0.82812,2.82813 0.82813,0.9375 2.07813,0.9375 1.25,0 2.0625,-0.9375 0.82812,-0.95313 0.82812,-2.89063 0,-1.82812 -0.82812,-2.76562 -0.82813,-0.9375 -2.0625,-0.9375 -1.25,0 -2.07813,0.9375 -0.82812,0.9375 -0.82812,2.82812 z"
       id="path31"
       inkscape:connector-curvature="0"
       style="fill:#000000;fill-rule:nonzero" />
    <path
       d="m 423.9994,233.03545 0,-1.60938 5.76562,0 0,5.04688 q -1.32812,1.0625 -2.75,1.59375 -1.40625,0.53125 -2.89062,0.53125 -2,0 -3.64063,-0.85938 -1.625,-0.85937 -2.46875,-2.48437 -0.82812,-1.625 -0.82812,-3.625 0,-1.98438 0.82812,-3.70313 0.82813,-1.71875 2.39063,-2.54687 1.5625,-0.84375 3.59375,-0.84375 1.46875,0 2.65625,0.48437 1.20312,0.46875 1.875,1.32813 0.67187,0.84375 1.03125,2.21875 l -1.625,0.4375 q -0.3125,-1.03125 -0.76563,-1.625 -0.45312,-0.59375 -1.29687,-0.95313 -0.84375,-0.35937 -1.875,-0.35937 -1.23438,0 -2.14063,0.375 -0.89062,0.375 -1.45312,1 -0.54688,0.60937 -0.84375,1.34375 -0.53125,1.25 -0.53125,2.73437 0,1.8125 0.625,3.04688 0.64062,1.21875 1.82812,1.8125 1.20313,0.59375 2.54688,0.59375 1.17187,0 2.28125,-0.45313 1.10937,-0.45312 1.6875,-0.95312 l 0,-2.53125 -4,0 z m 14.68332,2.15625 1.71875,0.21875 q -0.40625,1.5 -1.51563,2.34375 -1.09375,0.82812 -2.8125,0.82812 -2.15625,0 -3.42187,-1.32812 -1.26563,-1.32813 -1.26563,-3.73438 0,-2.48437 1.26563,-3.85937 1.28125,-1.375 3.32812,-1.375 1.98438,0 3.23438,1.34375 1.25,1.34375 1.25,3.79687 0,0.14063 -0.0156,0.4375 l -7.34375,0 q 0.0937,1.625 0.92188,2.48438 0.82812,0.85937 2.0625,0.85937 0.90625,0 1.54687,-0.46875 0.65625,-0.48437 1.04688,-1.54687 z m -5.48438,-2.70313 5.5,0 q -0.10937,-1.23437 -0.625,-1.85937 -0.79687,-0.96875 -2.07812,-0.96875 -1.14063,0 -1.9375,0.78125 -0.78125,0.76562 -0.85938,2.04687 z m 9.11008,5.875 0,-9.85937 1.5,0 0,1.40625 q 1.09375,-1.625 3.14063,-1.625 0.89062,0 1.64062,0.32812 0.75,0.3125 1.10938,0.84375 0.375,0.51563 0.53125,1.21875 0.0937,0.46875 0.0937,1.625 l 0,6.0625 -1.67188,0 0,-6 q 0,-1.01562 -0.20312,-1.51562 -0.1875,-0.51563 -0.6875,-0.8125 -0.5,-0.29688 -1.17188,-0.29688 -1.0625,0 -1.84375,0.67188 -0.76562,0.67187 -0.76562,2.57812 l 0,5.375 -1.67188,0 z m 17.12573,-3.17187 1.71875,0.21875 q -0.40625,1.5 -1.51562,2.34375 -1.09375,0.82812 -2.8125,0.82812 -2.15625,0 -3.42188,-1.32812 -1.26562,-1.32813 -1.26562,-3.73438 0,-2.48437 1.26562,-3.85937 1.28125,-1.375 3.32813,-1.375 1.98437,0 3.23437,1.34375 1.25,1.34375 1.25,3.79687 0,0.14063 -0.0156,0.4375 l -7.34375,0 q 0.0937,1.625 0.92187,2.48438 0.82813,0.85937 2.0625,0.85937 0.90625,0 1.54688,-0.46875 0.65625,-0.48437 1.04687,-1.54687 z m -5.48437,-2.70313 5.5,0 q -0.10938,-1.23437 -0.625,-1.85937 -0.79688,-0.96875 -2.07813,-0.96875 -1.14062,0 -1.9375,0.78125 -0.78125,0.76562 -0.85937,2.04687 z m 9.09445,5.875 0,-9.85937 1.5,0 0,1.5 q 0.57812,-1.04688 1.0625,-1.375 0.48437,-0.34375 1.07812,-0.34375 0.84375,0 1.71875,0.54687 l -0.57812,1.54688 q -0.60938,-0.35938 -1.23438,-0.35938 -0.54687,0 -0.98437,0.32813 -0.42188,0.32812 -0.60938,0.90625 -0.28125,0.89062 -0.28125,1.95312 l 0,5.15625 -1.67187,0 z m 12.6658,-1.21875 q -0.9375,0.79688 -1.79687,1.125 -0.85938,0.3125 -1.84375,0.3125 -1.60938,0 -2.48438,-0.78125 -0.875,-0.79687 -0.875,-2.03125 0,-0.73437 0.32813,-1.32812 0.32812,-0.59375 0.85937,-0.95313 0.53125,-0.35937 1.20313,-0.54687 0.5,-0.14063 1.48437,-0.25 2.03125,-0.25 2.98438,-0.57813 0,-0.34375 0,-0.4375 0,-1.01562 -0.46875,-1.4375 -0.64063,-0.5625 -1.90625,-0.5625 -1.17188,0 -1.73438,0.40625 -0.5625,0.40625 -0.82812,1.46875 l -1.64063,-0.23437 q 0.23438,-1.04688 0.73438,-1.6875 0.51562,-0.64063 1.46875,-0.98438 0.96875,-0.35937 2.25,-0.35937 1.26562,0 2.04687,0.29687 0.78125,0.29688 1.15625,0.75 0.375,0.45313 0.51563,1.14063 0.0937,0.42187 0.0937,1.53125 l 0,2.23437 q 0,2.32813 0.0937,2.95313 0.10937,0.60937 0.4375,1.17187 l -1.75,0 q -0.26563,-0.51562 -0.32813,-1.21875 z m -0.14062,-3.71875 q -0.90625,0.35938 -2.73438,0.625 -1.03125,0.14063 -1.45312,0.32813 -0.42188,0.1875 -0.65625,0.54687 -0.23438,0.35938 -0.23438,0.79688 0,0.67187 0.5,1.125 0.51563,0.4375 1.48438,0.4375 0.96875,0 1.71875,-0.42188 0.75,-0.4375 1.10937,-1.15625 0.26563,-0.57812 0.26563,-1.67187 l 0,-0.60938 z m 7.7351,3.4375 0.23438,1.48438 q -0.70313,0.14062 -1.26563,0.14062 -0.90625,0 -1.40625,-0.28125 -0.5,-0.29687 -0.70312,-0.75 -0.20313,-0.46875 -0.20313,-1.98437 l 0,-5.65625 -1.23437,0 0,-1.3125 1.23437,0 0,-2.4375 1.65625,-1 0,3.4375 1.6875,0 0,1.3125 -1.6875,0 0,5.75 q 0,0.71875 0.0781,0.92187 0.0937,0.20313 0.29687,0.32813 0.20313,0.125 0.57813,0.125 0.26562,0 0.73437,-0.0781 z m 0.90204,-3.42187 q 0,-2.73438 1.53125,-4.0625 1.26563,-1.09375 3.09375,-1.09375 2.03125,0 3.3125,1.34375 1.29688,1.32812 1.29688,3.67187 0,1.90625 -0.57813,3 -0.5625,1.07813 -1.65625,1.6875 -1.07812,0.59375 -2.375,0.59375 -2.0625,0 -3.34375,-1.32812 -1.28125,-1.32813 -1.28125,-3.8125 z m 1.71875,0 q 0,1.89062 0.82813,2.82812 0.82812,0.9375 2.07812,0.9375 1.25,0 2.0625,-0.9375 0.82813,-0.95312 0.82813,-2.89062 0,-1.82813 -0.82813,-2.76563 -0.82812,-0.9375 -2.0625,-0.9375 -1.25,0 -2.07812,0.9375 -0.82813,0.9375 -0.82813,2.82813 z m 9.26633,4.92187 0,-9.85937 1.5,0 0,1.5 q 0.57812,-1.04688 1.0625,-1.375 0.48437,-0.34375 1.07812,-0.34375 0.84375,0 1.71875,0.54687 l -0.57812,1.54688 q -0.60938,-0.35938 -1.23438,-0.35938 -0.54687,0 -0.98437,0.32813 -0.42188,0.32812 -0.60938,0.90625 -0.28125,0.89062 -0.28125,1.95312 l 0,5.15625 -1.67187,0 z"
       id="path33"
       inkscape:connector-curvature="0"
       style="fill:#000000;fill-rule:nonzero" />
    <path
       d="m 361.14697,106.11286 194.04724,0 0,33.5118 -194.04724,0 z"
       id="path35"
       inkscape:connector-curvature="0"
       style="fill:#eeeeee;fill-rule:evenodd" />
    <path
       d="m 361.14697,106.11286 194.04724,0 0,33.5118 -194.04724,0 z"
       id="path37"
       inkscape:connector-curvature="0"
       style="fill-rule:evenodd;stroke:#595959;stroke-width:1;stroke-linecap:butt;stroke-linejoin:round" />
    <path
       d="m 403.68735,129.78876 5.23437,-13.59374 1.9375,0 5.5625,13.59374 -2.04687,0 -1.59375,-4.12499 -5.6875,0 -1.48438,4.12499 -1.92187,0 z m 3.92187,-5.57812 4.60938,0 -1.40625,-3.78125 q -0.65625,-1.70312 -0.96875,-2.8125 -0.26563,1.3125 -0.73438,2.59375 l -1.5,4 z m 16.25608,5.57812 0,-1.45313 q -1.14063,1.67188 -3.125,1.67188 -0.85938,0 -1.625,-0.32813 -0.75,-0.34375 -1.125,-0.84375 -0.35938,-0.5 -0.51563,-1.23436 -0.0937,-0.5 -0.0937,-1.5625 l 0,-6.10938 1.67188,0 0,5.46875 q 0,1.3125 0.0937,1.76563 0.15625,0.65625 0.67187,1.03124 0.51563,0.375 1.26563,0.375 0.75,0 1.40625,-0.375 0.65625,-0.39062 0.92187,-1.04687 0.28125,-0.67187 0.28125,-1.9375 l 0,-5.28125 1.67188,0 0,9.85937 -1.5,0 z m 10.3132,0 0,-1.25 q -0.9375,1.46875 -2.75,1.46875 -1.17188,0 -2.17188,-0.64063 -0.98437,-0.65625 -1.53125,-1.81249 -0.53125,-1.17187 -0.53125,-2.6875 0,-1.46875 0.48438,-2.67187 0.5,-1.20313 1.46875,-1.84375 0.98437,-0.64063 2.20312,-0.64063 0.89063,0 1.57813,0.375 0.70312,0.375 1.14062,0.98438 l 0,-4.875 1.65625,0 0,13.59374 -1.54687,0 z m -5.28125,-4.92187 q 0,1.89063 0.79687,2.82813 0.8125,0.93749 1.89063,0.93749 1.09375,0 1.85937,-0.89062 0.76563,-0.89062 0.76563,-2.73437 0,-2.01563 -0.78125,-2.95313 -0.78125,-0.95312 -1.92188,-0.95312 -1.10937,0 -1.85937,0.90625 -0.75,0.90625 -0.75,2.85937 z m 9.28198,-6.76562 0,-1.90625 1.67188,0 0,1.90625 -1.67188,0 z m 0,11.68749 0,-9.85937 1.67188,0 0,9.85937 -1.67188,0 z m 3.50418,-4.92187 q 0,-2.73437 1.53125,-4.0625 1.26563,-1.09375 3.09375,-1.09375 2.03125,0 3.3125,1.34375 1.29688,1.32813 1.29688,3.67188 0,1.90625 -0.57813,3 -0.5625,1.07811 -1.65625,1.68749 -1.07812,0.59375 -2.375,0.59375 -2.0625,0 -3.34375,-1.32813 -1.28125,-1.32811 -1.28125,-3.81249 z m 1.71875,0 q 0,1.89063 0.82813,2.82813 0.82812,0.93749 2.07812,0.93749 1.25,0 2.0625,-0.93749 0.82813,-0.95313 0.82813,-2.89063 0,-1.82812 -0.82813,-2.76562 -0.82812,-0.9375 -2.0625,-0.9375 -1.25,0 -2.07812,0.9375 -0.82813,0.9375 -0.82813,2.82812 z m 14.13715,-1.70312 q 0,-3.39063 1.8125,-5.29688 1.82812,-1.92187 4.70312,-1.92187 1.875,0 3.39063,0.90625 1.51562,0.89062 2.29687,2.5 0.79688,1.60937 0.79688,3.65625 0,2.0625 -0.84375,3.70312 -0.82813,1.62499 -2.35938,2.46874 -1.53125,0.84375 -3.29687,0.84375 -1.92188,0 -3.4375,-0.92187 -1.5,-0.9375 -2.28125,-2.53124 -0.78125,-1.60938 -0.78125,-3.40625 z m 1.85937,0.0312 q 0,2.45312 1.3125,3.875 1.32813,1.40624 3.3125,1.40624 2.03125,0 3.34375,-1.42187 1.3125,-1.4375 1.3125,-4.0625 0,-1.65625 -0.5625,-2.89062 -0.54687,-1.23438 -1.64062,-1.92188 -1.07813,-0.6875 -2.42188,-0.6875 -1.90625,0 -3.28125,1.3125 -1.375,1.3125 -1.375,4.39063 z m 19.43332,6.59374 0,-1.45313 q -1.14062,1.67188 -3.125,1.67188 -0.85937,0 -1.625,-0.32813 -0.75,-0.34375 -1.125,-0.84375 -0.35937,-0.5 -0.51562,-1.23436 -0.0937,-0.5 -0.0937,-1.5625 l 0,-6.10938 1.67187,0 0,5.46875 q 0,1.3125 0.0937,1.76563 0.15625,0.65625 0.67188,1.03124 0.51562,0.375 1.26562,0.375 0.75,0 1.40625,-0.375 0.65625,-0.39062 0.92188,-1.04687 0.28125,-0.67187 0.28125,-1.9375 l 0,-5.28125 1.67187,0 0,9.85937 -1.5,0 z m 7.57883,-1.5 0.23438,1.48437 q -0.70313,0.14063 -1.26563,0.14063 -0.90625,0 -1.40625,-0.28125 -0.5,-0.29688 -0.70312,-0.75 -0.20313,-0.46875 -0.20313,-1.98437 l 0,-5.65625 -1.23437,0 0,-1.3125 1.23437,0 0,-2.4375 1.65625,-1 0,3.4375 1.6875,0 0,1.3125 -1.6875,0 0,5.75 q 0,0.71875 0.0781,0.92188 0.0937,0.20311 0.29687,0.32811 0.20313,0.125 0.57813,0.125 0.26562,0 0.73437,-0.0781 z m 1.52707,5.28125 0,-13.64062 1.53122,0 0,1.28125 q 0.53125,-0.75 1.20312,-1.125 0.6875,-0.375 1.64063,-0.375 1.26562,0 2.23437,0.65625 0.96875,0.64063 1.45313,1.82813 0.5,1.1875 0.5,2.59375 0,1.51562 -0.54688,2.73437 -0.54687,1.20312 -1.57812,1.84374 -1.03125,0.64063 -2.17188,0.64063 -0.84375,0 -1.51562,-0.34375 -0.65625,-0.35938 -1.07813,-0.89063 l 0,4.79688 -1.67184,0 z m 1.51559,-8.65624 q 0,1.90625 0.76563,2.8125 0.78125,0.90624 1.875,0.90624 1.10937,0 1.89062,-0.93749 0.79688,-0.9375 0.79688,-2.92188 0,-1.875 -0.78125,-2.8125 -0.76563,-0.9375 -1.84375,-0.9375 -1.0625,0 -1.89063,1 -0.8125,1 -0.8125,2.89063 z m 15.31324,4.87499 0,-1.45313 q -1.14063,1.67188 -3.125,1.67188 -0.85938,0 -1.625,-0.32813 -0.75,-0.34375 -1.125,-0.84375 -0.35938,-0.5 -0.51563,-1.23436 -0.0937,-0.5 -0.0937,-1.5625 l 0,-6.10938 1.67188,0 0,5.46875 q 0,1.3125 0.0937,1.76563 0.15625,0.65625 0.67187,1.03124 0.51563,0.375 1.26563,0.375 0.75,0 1.40625,-0.375 0.65625,-0.39062 0.92187,-1.04687 0.28125,-0.67187 0.28125,-1.9375 l 0,-5.28125 1.67188,0 0,9.85937 -1.5,0 z m 7.57885,-1.5 0.23438,1.48437 q -0.70316,0.14063 -1.26566,0.14063 -0.90625,0 -1.40625,-0.28125 -0.5,-0.29688 -0.70312,-0.75 -0.20313,-0.46875 -0.20313,-1.98437 l 0,-5.65625 -1.23437,0 0,-1.3125 1.23437,0 0,-2.4375 1.65625,-1 0,3.4375 1.68753,0 0,1.3125 -1.68753,0 0,5.75 q 0,0.71875 0.0781,0.92188 0.0937,0.20311 0.29687,0.32811 0.20313,0.125 0.57813,0.125 0.26562,0 0.7344,-0.0781 z"
       id="path39"
       inkscape:connector-curvature="0"
       style="fill:#000000;fill-rule:nonzero" />
    <path
       d="m 652.52234,201.29396 194.04724,0 0,38.29921 -194.04724,0 z"
       id="path41"
       inkscape:connector-curvature="0"
       style="fill:#eeeeee;fill-rule:evenodd" />
    <path
       d="m 652.52234,201.29396 194.04724,0 0,38.29921 -194.04724,0 z"
       id="path43"
       inkscape:connector-curvature="0"
       style="fill-rule:evenodd;stroke:#595959;stroke-width:1;stroke-linecap:butt;stroke-linejoin:round" />
    <path
       d="m 672.01776,227.36357 0,-12 -4.46875,0 0,-1.59375 10.76562,0 0,1.59375 -4.5,0 0,12 -1.79687,0 z m 14.16162,-1.21875 q -0.9375,0.79687 -1.79687,1.125 -0.85938,0.3125 -1.84375,0.3125 -1.60938,0 -2.48438,-0.78125 -0.875,-0.79688 -0.875,-2.03125 0,-0.73438 0.32813,-1.32813 0.32812,-0.59375 0.85937,-0.95312 0.53125,-0.35938 1.20313,-0.54688 0.5,-0.14062 1.48437,-0.25 2.03125,-0.25 2.98438,-0.57812 0,-0.34375 0,-0.4375 0,-1.01563 -0.46875,-1.4375 -0.64063,-0.5625 -1.90625,-0.5625 -1.17188,0 -1.73438,0.40625 -0.5625,0.40625 -0.82812,1.46875 l -1.64063,-0.23438 q 0.23438,-1.04687 0.73438,-1.6875 0.51562,-0.64062 1.46875,-0.98437 0.96875,-0.35938 2.25,-0.35938 1.26562,0 2.04687,0.29688 0.78125,0.29687 1.15625,0.75 0.375,0.45312 0.51563,1.14062 0.0937,0.42188 0.0937,1.53125 l 0,2.23438 q 0,2.32812 0.0937,2.95312 0.10937,0.60938 0.4375,1.17188 l -1.75,0 q -0.26563,-0.51563 -0.32813,-1.21875 z m -0.14062,-3.71875 q -0.90625,0.35937 -2.73438,0.625 -1.03125,0.14062 -1.45312,0.32812 -0.42188,0.1875 -0.65625,0.54688 -0.23438,0.35937 -0.23438,0.79687 0,0.67188 0.5,1.125 0.51563,0.4375 1.48438,0.4375 0.96875,0 1.71875,-0.42187 0.75,-0.4375 1.10937,-1.15625 0.26563,-0.57813 0.26563,-1.67188 l 0,-0.60937 z m 4.07879,4.9375 0,-9.85938 1.5,0 0,1.40625 q 1.09375,-1.625 3.14063,-1.625 0.89062,0 1.64062,0.32813 0.75,0.3125 1.10938,0.84375 0.375,0.51562 0.53125,1.21875 0.0937,0.46875 0.0937,1.625 l 0,6.0625 -1.67188,0 0,-6 q 0,-1.01563 -0.20312,-1.51563 -0.1875,-0.51562 -0.6875,-0.8125 -0.5,-0.29687 -1.17188,-0.29687 -1.0625,0 -1.84375,0.67187 -0.76562,0.67188 -0.76562,2.57813 l 0,5.375 -1.67188,0 z m 10.07886,0.8125 1.60937,0.25 q 0.10938,0.75 0.57813,1.09375 0.60937,0.45312 1.6875,0.45312 1.17187,0 1.79687,-0.46875 0.625,-0.45312 0.85938,-1.28125 0.125,-0.51562 0.10937,-2.15625 -1.09375,1.29688 -2.71875,1.29688 -2.03125,0 -3.15625,-1.46875 -1.10937,-1.46875 -1.10937,-3.51563 0,-1.40625 0.51562,-2.59375 0.51563,-1.20312 1.48438,-1.84375 0.96875,-0.65625 2.26562,-0.65625 1.75,0 2.875,1.40625 l 0,-1.1875 1.54688,0 0,8.51563 q 0,2.3125 -0.46875,3.26562 -0.46875,0.96875 -1.48438,1.51563 -1.01562,0.5625 -2.5,0.5625 -1.76562,0 -2.85937,-0.79688 -1.07813,-0.79687 -1.03125,-2.39062 z m 1.375,-5.92188 q 0,1.95313 0.76562,2.84375 0.78125,0.89063 1.9375,0.89063 1.14063,0 1.92188,-0.89063 0.78125,-0.89062 0.78125,-2.78125 0,-1.8125 -0.8125,-2.71875 -0.79688,-0.92187 -1.92188,-0.92187 -1.10937,0 -1.89062,0.90625 -0.78125,0.89062 -0.78125,2.67187 z m 8.67261,0.1875 q 0,-2.73437 1.53125,-4.0625 1.26562,-1.09375 3.09375,-1.09375 2.03125,0 3.3125,1.34375 1.29687,1.32813 1.29687,3.67188 0,1.90625 -0.57812,3 -0.5625,1.07812 -1.65625,1.6875 -1.07813,0.59375 -2.375,0.59375 -2.0625,0 -3.34375,-1.32813 -1.28125,-1.32812 -1.28125,-3.8125 z m 1.71875,0 q 0,1.89063 0.82812,2.82813 0.82813,0.9375 2.07813,0.9375 1.25,0 2.0625,-0.9375 0.82812,-0.95313 0.82812,-2.89063 0,-1.82812 -0.82812,-2.76562 -0.82813,-0.9375 -2.0625,-0.9375 -1.25,0 -2.07813,0.9375 -0.82812,0.9375 -0.82812,2.82812 z m 14.07464,0.54688 1.6875,-0.14063 q 0.125,1.01563 0.5625,1.67188 0.4375,0.65625 1.35938,1.0625 0.9375,0.40625 2.09375,0.40625 1.03125,0 1.8125,-0.3125 0.79687,-0.3125 1.1875,-0.84375 0.39062,-0.53125 0.39062,-1.15625 0,-0.64063 -0.375,-1.10938 -0.375,-0.48437 -1.23437,-0.8125 -0.54688,-0.21875 -2.42188,-0.65625 -1.875,-0.45312 -2.625,-0.85937 -0.96875,-0.51563 -1.45312,-1.26563 -0.46875,-0.75 -0.46875,-1.6875 0,-1.03125 0.57812,-1.92187 0.59375,-0.90625 1.70313,-1.35938 1.125,-0.46875 2.5,-0.46875 1.51562,0 2.67187,0.48438 1.15625,0.48437 1.76563,1.4375 0.625,0.9375 0.67187,2.14062 l -1.71875,0.125 q -0.14062,-1.28125 -0.95312,-1.9375 -0.79688,-0.67187 -2.35938,-0.67187 -1.625,0 -2.375,0.60937 -0.75,0.59375 -0.75,1.4375 0,0.73438 0.53125,1.20313 0.51563,0.46875 2.70313,0.96875 2.20312,0.5 3.01562,0.875 1.1875,0.54687 1.75,1.39062 0.57813,0.82813 0.57813,1.92188 0,1.09375 -0.625,2.0625 -0.625,0.95312 -1.79688,1.48437 -1.15625,0.53125 -2.60937,0.53125 -1.84375,0 -3.09375,-0.53125 -1.25,-0.54687 -1.96875,-1.625 -0.70313,-1.07812 -0.73438,-2.45312 z m 19.58417,1.20312 1.71875,0.21875 q -0.40625,1.5 -1.51563,2.34375 -1.09375,0.82813 -2.8125,0.82813 -2.15625,0 -3.42187,-1.32813 -1.26563,-1.32812 -1.26563,-3.73437 0,-2.48438 1.26563,-3.85938 1.28125,-1.375 3.32812,-1.375 1.98438,0 3.23438,1.34375 1.25,1.34375 1.25,3.79688 0,0.14062 -0.0156,0.4375 l -7.34375,0 q 0.0937,1.625 0.92188,2.48437 0.82812,0.85938 2.0625,0.85938 0.90625,0 1.54687,-0.46875 0.65625,-0.48438 1.04688,-1.54688 z m -5.48438,-2.70312 5.5,0 q -0.10937,-1.23438 -0.625,-1.85938 -0.79687,-0.96875 -2.07812,-0.96875 -1.14063,0 -1.9375,0.78125 -0.78125,0.76563 -0.85938,2.04688 z m 9.11011,5.875 0,-9.85938 1.5,0 0,1.40625 q 1.09375,-1.625 3.14063,-1.625 0.89062,0 1.64062,0.32813 0.75,0.3125 1.10938,0.84375 0.375,0.51562 0.53125,1.21875 0.0937,0.46875 0.0937,1.625 l 0,6.0625 -1.67188,0 0,-6 q 0,-1.01563 -0.20312,-1.51563 -0.1875,-0.51562 -0.6875,-0.8125 -0.5,-0.29687 -1.17188,-0.29687 -1.0625,0 -1.84375,0.67187 -0.76562,0.67188 -0.76562,2.57813 l 0,5.375 -1.67188,0 z m 9.70386,-2.9375 1.65625,-0.26563 q 0.14062,1 0.76562,1.53125 0.64063,0.51563 1.78125,0.51563 1.15625,0 1.70313,-0.46875 0.5625,-0.46875 0.5625,-1.09375 0,-0.5625 -0.48438,-0.89063 -0.34375,-0.21875 -1.70312,-0.5625 -1.84375,-0.46875 -2.5625,-0.79687 -0.70313,-0.34375 -1.07813,-0.9375 -0.35937,-0.60938 -0.35937,-1.32813 0,-0.65625 0.29687,-1.21875 0.3125,-0.5625 0.82813,-0.9375 0.39062,-0.28125 1.0625,-0.48437 0.67187,-0.20313 1.4375,-0.20313 1.17187,0 2.04687,0.34375 0.875,0.32813 1.28125,0.90625 0.42188,0.5625 0.57813,1.51563 l -1.625,0.21875 q -0.10938,-0.75 -0.65625,-1.17188 -0.53125,-0.4375 -1.5,-0.4375 -1.15625,0 -1.64063,0.39063 -0.48437,0.375 -0.48437,0.875 0,0.32812 0.20312,0.59375 0.20313,0.26562 0.64063,0.4375 0.25,0.0937 1.46875,0.4375 1.76562,0.46875 2.46875,0.76562 0.70312,0.29688 1.09375,0.875 0.40625,0.57813 0.40625,1.4375 0,0.82813 -0.48438,1.57813 -0.48437,0.73437 -1.40625,1.14062 -0.92187,0.39063 -2.07812,0.39063 -1.92188,0 -2.9375,-0.79688 -1,-0.79687 -1.28125,-2.35937 z m 9.375,-1.98438 q 0,-2.73437 1.53125,-4.0625 1.26562,-1.09375 3.09375,-1.09375 2.03125,0 3.3125,1.34375 1.29687,1.32813 1.29687,3.67188 0,1.90625 -0.57812,3 -0.5625,1.07812 -1.65625,1.6875 -1.07813,0.59375 -2.375,0.59375 -2.0625,0 -3.34375,-1.32813 -1.28125,-1.32812 -1.28125,-3.8125 z m 1.71875,0 q 0,1.89063 0.82812,2.82813 0.82813,0.9375 2.07813,0.9375 1.25,0 2.0625,-0.9375 0.82812,-0.95313 0.82812,-2.89063 0,-1.82812 -0.82812,-2.76562 -0.82813,-0.9375 -2.0625,-0.9375 -1.25,0 -2.07813,0.9375 -0.82812,0.9375 -0.82812,2.82812 z m 9.26636,4.92188 0,-9.85938 1.5,0 0,1.5 q 0.57812,-1.04687 1.0625,-1.375 0.48437,-0.34375 1.07812,-0.34375 0.84375,0 1.71875,0.54688 l -0.57812,1.54687 q -0.60938,-0.35937 -1.23438,-0.35937 -0.54687,0 -0.98437,0.32812 -0.42188,0.32813 -0.60938,0.90625 -0.28125,0.89063 -0.28125,1.95313 l 0,5.15625 -1.67187,0 z m 11.02093,-4.375 1.6875,-0.14063 q 0.125,1.01563 0.5625,1.67188 0.4375,0.65625 1.35938,1.0625 0.9375,0.40625 2.09375,0.40625 1.03125,0 1.8125,-0.3125 0.79687,-0.3125 1.1875,-0.84375 0.39062,-0.53125 0.39062,-1.15625 0,-0.64063 -0.375,-1.10938 -0.375,-0.48437 -1.23437,-0.8125 -0.54688,-0.21875 -2.42188,-0.65625 -1.875,-0.45312 -2.625,-0.85937 -0.96875,-0.51563 -1.45312,-1.26563 -0.46875,-0.75 -0.46875,-1.6875 0,-1.03125 0.57812,-1.92187 0.59375,-0.90625 1.70313,-1.35938 1.125,-0.46875 2.5,-0.46875 1.51562,0 2.67187,0.48438 1.15625,0.48437 1.76563,1.4375 0.625,0.9375 0.67187,2.14062 l -1.71875,0.125 q -0.14062,-1.28125 -0.95312,-1.9375 -0.79688,-0.67187 -2.35938,-0.67187 -1.625,0 -2.375,0.60937 -0.75,0.59375 -0.75,1.4375 0,0.73438 0.53125,1.20313 0.51563,0.46875 2.70313,0.96875 2.20312,0.5 3.01562,0.875 1.1875,0.54687 1.75,1.39062 0.57813,0.82813 0.57813,1.92188 0,1.09375 -0.625,2.0625 -0.625,0.95312 -1.79688,1.48437 -1.15625,0.53125 -2.60937,0.53125 -1.84375,0 -3.09375,-0.53125 -1.25,-0.54687 -1.96875,-1.625 -0.70313,-1.07812 -0.73438,-2.45312 z m 19.28735,4.375 0,-1.45313 q -1.14062,1.67188 -3.125,1.67188 -0.85937,0 -1.625,-0.32813 -0.75,-0.34375 -1.125,-0.84375 -0.35937,-0.5 -0.51562,-1.23437 -0.0937,-0.5 -0.0937,-1.5625 l 0,-6.10938 1.67187,0 0,5.46875 q 0,1.3125 0.0937,1.76563 0.15625,0.65625 0.67188,1.03125 0.51562,0.375 1.26562,0.375 0.75,0 1.40625,-0.375 0.65625,-0.39063 0.92188,-1.04688 0.28125,-0.67187 0.28125,-1.9375 l 0,-5.28125 1.67187,0 0,9.85938 -1.5,0 z m 3.93824,-11.6875 0,-1.90625 1.67187,0 0,1.90625 -1.67187,0 z m 0,11.6875 0,-9.85938 1.67187,0 0,9.85938 -1.67187,0 z m 7.7854,-1.5 0.23437,1.48437 q -0.70312,0.14063 -1.26562,0.14063 -0.90625,0 -1.40625,-0.28125 -0.5,-0.29688 -0.70313,-0.75 -0.20312,-0.46875 -0.20312,-1.98438 l 0,-5.65625 -1.23438,0 0,-1.3125 1.23438,0 0,-2.4375 1.65625,-1 0,3.4375 1.6875,0 0,1.3125 -1.6875,0 0,5.75 q 0,0.71875 0.0781,0.92188 0.0937,0.20312 0.29688,0.32812 0.20312,0.125 0.57812,0.125 0.26563,0 0.73438,-0.0781 z m 8.2771,-1.67188 1.71875,0.21875 q -0.40625,1.5 -1.51563,2.34375 -1.09375,0.82813 -2.8125,0.82813 -2.15625,0 -3.42187,-1.32813 -1.26563,-1.32812 -1.26563,-3.73437 0,-2.48438 1.26563,-3.85938 1.28125,-1.375 3.32812,-1.375 1.98438,0 3.23438,1.34375 1.25,1.34375 1.25,3.79688 0,0.14062 -0.0156,0.4375 l -7.34375,0 q 0.0937,1.625 0.92188,2.48437 0.82812,0.85938 2.0625,0.85938 0.90625,0 1.54687,-0.46875 0.65625,-0.48438 1.04688,-1.54688 z m -5.48438,-2.70312 5.5,0 q -0.10937,-1.23438 -0.625,-1.85938 -0.79687,-0.96875 -2.07812,-0.96875 -1.14063,0 -1.9375,0.78125 -0.78125,0.76563 -0.85938,2.04688 z"
       id="path45"
       inkscape:connector-curvature="0"
       style="fill:#000000;fill-rule:nonzero" />
    <path
       d="m 361.14697,306.76642 194.04724,0 0,56.44092 -194.04724,0 z"
       id="path47"
       inkscape:connector-curvature="0"
       style="fill:#eeeeee;fill-rule:evenodd" />
    <path
       d="m 361.14697,306.76642 194.04724,0 0,56.44092 -194.04724,0 z"
       id="path49"
       inkscape:connector-curvature="0"
       style="fill-rule:evenodd;stroke:#595959;stroke-width:1;stroke-linecap:butt;stroke-linejoin:round" />
    <path
       d="m 394.8253,330.90686 0,-13.59375 4.6875,0 q 1.57813,0 2.42188,0.1875 1.15625,0.26562 1.98437,0.96875 1.07813,0.92187 1.60938,2.34375 0.53125,1.40625 0.53125,3.21875 0,1.54687 -0.35938,2.75 -0.35937,1.1875 -0.92187,1.98437 -0.5625,0.78125 -1.23438,1.23438 -0.67187,0.4375 -1.625,0.67187 -0.95312,0.23438 -2.1875,0.23438 l -4.90625,0 z m 1.79688,-1.60938 2.90625,0 q 1.34375,0 2.10937,-0.25 0.76563,-0.25 1.21875,-0.70312 0.64063,-0.64063 1,-1.71875 0.35938,-1.07813 0.35938,-2.625 0,-2.125 -0.70313,-3.26563 -0.70312,-1.15625 -1.70312,-1.54687 -0.71875,-0.28125 -2.32813,-0.28125 l -2.85937,0 0,10.39062 z m 17.8948,0.39063 q -0.9375,0.79687 -1.79687,1.125 -0.85938,0.3125 -1.84375,0.3125 -1.60938,0 -2.48438,-0.78125 -0.875,-0.79688 -0.875,-2.03125 0,-0.73438 0.32813,-1.32813 0.32812,-0.59375 0.85937,-0.95312 0.53125,-0.35938 1.20313,-0.54688 0.5,-0.14062 1.48437,-0.25 2.03125,-0.25 2.98438,-0.57812 0,-0.34375 0,-0.4375 0,-1.01563 -0.46875,-1.4375 -0.64063,-0.5625 -1.90625,-0.5625 -1.17188,0 -1.73438,0.40625 -0.5625,0.40625 -0.82812,1.46875 l -1.64063,-0.23438 q 0.23438,-1.04687 0.73438,-1.6875 0.51562,-0.64062 1.46875,-0.98437 0.96875,-0.35938 2.25,-0.35938 1.26562,0 2.04687,0.29688 0.78125,0.29687 1.15625,0.75 0.375,0.45312 0.51563,1.14062 0.0937,0.42188 0.0937,1.53125 l 0,2.23438 q 0,2.32812 0.0937,2.95312 0.10937,0.60938 0.4375,1.17188 l -1.75,0 q -0.26563,-0.51563 -0.32813,-1.21875 z m -0.14062,-3.71875 q -0.90625,0.35937 -2.73438,0.625 -1.03125,0.14062 -1.45312,0.32812 -0.42188,0.1875 -0.65625,0.54688 -0.23438,0.35937 -0.23438,0.79687 0,0.67188 0.5,1.125 0.51563,0.4375 1.48438,0.4375 0.96875,0 1.71875,-0.42187 0.75,-0.4375 1.10937,-1.15625 0.26563,-0.57813 0.26563,-1.67188 l 0,-0.60937 z m 7.7351,3.4375 0.23438,1.48437 q -0.70313,0.14063 -1.26563,0.14063 -0.90625,0 -1.40625,-0.28125 -0.5,-0.29688 -0.70312,-0.75 -0.20313,-0.46875 -0.20313,-1.98438 l 0,-5.65625 -1.23437,0 0,-1.3125 1.23437,0 0,-2.4375 1.65625,-1 0,3.4375 1.6875,0 0,1.3125 -1.6875,0 0,5.75 q 0,0.71875 0.0781,0.92188 0.0937,0.20312 0.29687,0.32812 0.20313,0.125 0.57813,0.125 0.26562,0 0.73437,-0.0781 z m 7.96454,0.28125 q -0.9375,0.79687 -1.79687,1.125 -0.85938,0.3125 -1.84375,0.3125 -1.60938,0 -2.48438,-0.78125 -0.875,-0.79688 -0.875,-2.03125 0,-0.73438 0.32813,-1.32813 0.32812,-0.59375 0.85937,-0.95312 0.53125,-0.35938 1.20313,-0.54688 0.5,-0.14062 1.48437,-0.25 2.03125,-0.25 2.98438,-0.57812 0,-0.34375 0,-0.4375 0,-1.01563 -0.46875,-1.4375 -0.64063,-0.5625 -1.90625,-0.5625 -1.17188,0 -1.73438,0.40625 -0.5625,0.40625 -0.82812,1.46875 l -1.64063,-0.23438 q 0.23438,-1.04687 0.73438,-1.6875 0.51562,-0.64062 1.46875,-0.98437 0.96875,-0.35938 2.25,-0.35938 1.26562,0 2.04687,0.29688 0.78125,0.29687 1.15625,0.75 0.375,0.45312 0.51563,1.14062 0.0937,0.42188 0.0937,1.53125 l 0,2.23438 q 0,2.32812 0.0937,2.95312 0.10937,0.60938 0.4375,1.17188 l -1.75,0 q -0.26563,-0.51563 -0.32813,-1.21875 z m -0.14062,-3.71875 q -0.90625,0.35937 -2.73438,0.625 -1.03125,0.14062 -1.45312,0.32812 -0.42188,0.1875 -0.65625,0.54688 -0.23438,0.35937 -0.23438,0.79687 0,0.67188 0.5,1.125 0.51563,0.4375 1.48438,0.4375 0.96875,0 1.71875,-0.42187 0.75,-0.4375 1.10937,-1.15625 0.26563,-0.57813 0.26563,-1.67188 l 0,-0.60937 z m 9.51214,4.9375 0,-13.59375 6.03125,0 q 1.8125,0 2.75,0.35937 0.95313,0.35938 1.51563,1.29688 0.5625,0.92187 0.5625,2.04687 0,1.45313 -0.9375,2.45313 -0.92188,0.98437 -2.89063,1.25 0.71875,0.34375 1.09375,0.67187 0.78125,0.73438 1.48438,1.8125 l 2.375,3.70313 -2.26563,0 -1.79687,-2.82813 q -0.79688,-1.21875 -1.3125,-1.875 -0.5,-0.65625 -0.90625,-0.90625 -0.40625,-0.26562 -0.8125,-0.35937 -0.3125,-0.0781 -1.01563,-0.0781 l -2.07812,0 0,6.04688 -1.79688,0 z m 1.79688,-7.59375 3.85937,0 q 1.23438,0 1.92188,-0.25 0.70312,-0.26563 1.0625,-0.82813 0.375,-0.5625 0.375,-1.21875 0,-0.96875 -0.70313,-1.57812 -0.70312,-0.625 -2.21875,-0.625 l -4.29687,0 0,4.5 z m 18.17608,4.42187 1.71875,0.21875 q -0.40625,1.5 -1.51562,2.34375 -1.09375,0.82813 -2.8125,0.82813 -2.15625,0 -3.42188,-1.32813 -1.26562,-1.32812 -1.26562,-3.73437 0,-2.48438 1.26562,-3.85938 1.28125,-1.375 3.32813,-1.375 1.98437,0 3.23437,1.34375 1.25,1.34375 1.25,3.79688 0,0.14062 -0.0156,0.4375 l -7.34375,0 q 0.0937,1.625 0.92187,2.48437 0.82813,0.85938 2.0625,0.85938 0.90625,0 1.54688,-0.46875 0.65625,-0.48438 1.04687,-1.54688 z m -5.48437,-2.70312 5.5,0 q -0.10938,-1.23438 -0.625,-1.85938 -0.79688,-0.96875 -2.07813,-0.96875 -1.14062,0 -1.9375,0.78125 -0.78125,0.76563 -0.85937,2.04688 z m 15.54758,2.26562 1.64062,0.21875 q -0.26562,1.6875 -1.375,2.65625 -1.10937,0.95313 -2.73437,0.95313 -2.01563,0 -3.25,-1.3125 -1.21875,-1.32813 -1.21875,-3.79688 0,-1.59375 0.51562,-2.78125 0.53125,-1.20312 1.60938,-1.79687 1.09375,-0.60938 2.35937,-0.60938 1.60938,0 2.625,0.8125 1.01563,0.8125 1.3125,2.3125 l -1.625,0.25 q -0.23437,-1 -0.82812,-1.5 -0.59375,-0.5 -1.42188,-0.5 -1.26562,0 -2.0625,0.90625 -0.78125,0.90625 -0.78125,2.85938 0,1.98437 0.76563,2.89062 0.76562,0.89063 1.98437,0.89063 0.98438,0 1.64063,-0.59375 0.65625,-0.60938 0.84375,-1.85938 z m 2.26562,-1.3125 q 0,-2.73437 1.53125,-4.0625 1.26563,-1.09375 3.09375,-1.09375 2.03125,0 3.3125,1.34375 1.29688,1.32813 1.29688,3.67188 0,1.90625 -0.57813,3 -0.5625,1.07812 -1.65625,1.6875 -1.07812,0.59375 -2.375,0.59375 -2.0625,0 -3.34375,-1.32813 -1.28125,-1.32812 -1.28125,-3.8125 z m 1.71875,0 q 0,1.89063 0.82813,2.82813 0.82812,0.9375 2.07812,0.9375 1.25,0 2.0625,-0.9375 0.82813,-0.95313 0.82813,-2.89063 0,-1.82812 -0.82813,-2.76562 -0.82812,-0.9375 -2.0625,-0.9375 -1.25,0 -2.07812,0.9375 -0.82813,0.9375 -0.82813,2.82812 z m 9.26636,4.92188 0,-9.85938 1.5,0 0,1.5 q 0.57812,-1.04687 1.0625,-1.375 0.48437,-0.34375 1.07812,-0.34375 0.84375,0 1.71875,0.54688 l -0.57812,1.54687 q -0.60938,-0.35937 -1.23438,-0.35937 -0.54687,0 -0.98437,0.32812 -0.42188,0.32813 -0.60938,0.90625 -0.28125,0.89063 -0.28125,1.95313 l 0,5.15625 -1.67187,0 z m 12.61892,0 0,-1.25 q -0.9375,1.46875 -2.75,1.46875 -1.17187,0 -2.17187,-0.64063 -0.98438,-0.65625 -1.53125,-1.8125 -0.53125,-1.17187 -0.53125,-2.6875 0,-1.46875 0.48437,-2.67187 0.5,-1.20313 1.46875,-1.84375 0.98438,-0.64063 2.20313,-0.64063 0.89062,0 1.57812,0.375 0.70313,0.375 1.14063,0.98438 l 0,-4.875 1.65625,0 0,13.59375 -1.54688,0 z m -5.28125,-4.92188 q 0,1.89063 0.79688,2.82813 0.8125,0.9375 1.89062,0.9375 1.09375,0 1.85938,-0.89063 0.76562,-0.89062 0.76562,-2.73437 0,-2.01563 -0.78125,-2.95313 -0.78125,-0.95312 -1.92187,-0.95312 -1.10938,0 -1.85938,0.90625 -0.75,0.90625 -0.75,2.85937 z m 9.28196,-6.76562 0,-1.90625 1.67187,0 0,1.90625 -1.67187,0 z m 0,11.6875 0,-9.85938 1.67187,0 0,9.85938 -1.67187,0 z m 4.12921,0 0,-9.85938 1.5,0 0,1.40625 q 1.09375,-1.625 3.14062,-1.625 0.89063,0 1.64063,0.32813 0.75,0.3125 1.10937,0.84375 0.375,0.51562 0.53125,1.21875 0.0937,0.46875 0.0937,1.625 l 0,6.0625 -1.67187,0 0,-6 q 0,-1.01563 -0.20313,-1.51563 -0.1875,-0.51562 -0.6875,-0.8125 -0.5,-0.29687 -1.17187,-0.29687 -1.0625,0 -1.84375,0.67187 -0.76563,0.67188 -0.76563,2.57813 l 0,5.375 -1.67187,0 z m 10.07883,0.8125 1.60937,0.25 q 0.10938,0.75 0.57813,1.09375 0.60937,0.45312 1.6875,0.45312 1.17187,0 1.79687,-0.46875 0.625,-0.45312 0.85938,-1.28125 0.125,-0.51562 0.10937,-2.15625 -1.09375,1.29688 -2.71875,1.29688 -2.03125,0 -3.15625,-1.46875 -1.10937,-1.46875 -1.10937,-3.51563 0,-1.40625 0.51562,-2.59375 0.51563,-1.20312 1.48438,-1.84375 0.96875,-0.65625 2.26562,-0.65625 1.75,0 2.875,1.40625 l 0,-1.1875 1.54688,0 0,8.51563 q 0,2.3125 -0.46875,3.26562 -0.46875,0.96875 -1.48438,1.51563 -1.01562,0.5625 -2.5,0.5625 -1.76562,0 -2.85937,-0.79688 -1.07813,-0.79687 -1.03125,-2.39062 z m 1.375,-5.92188 q 0,1.95313 0.76562,2.84375 0.78125,0.89063 1.9375,0.89063 1.14063,0 1.92188,-0.89063 0.78125,-0.89062 0.78125,-2.78125 0,-1.8125 -0.8125,-2.71875 -0.79688,-0.92187 -1.92188,-0.92187 -1.10937,0 -1.89062,0.90625 -0.78125,0.89062 -0.78125,2.67187 z"
       id="path51"
       inkscape:connector-curvature="0"
       style="fill:#000000;fill-rule:nonzero" />
    <path
       d="m 401.53113,352.9069 0,-13.59375 2.71875,0 3.21875,9.625 q 0.4375,1.34375 0.64063,2.01562 0.23437,-0.75 0.73437,-2.1875 l 3.25,-9.45312 2.42188,0 0,13.59375 -1.73438,0 0,-11.39063 -3.95312,11.39063 -1.625,0 -3.9375,-11.57813 0,11.57813 -1.73438,0 z m 14.75955,-4.92188 q 0,-2.73437 1.53125,-4.0625 1.26563,-1.09375 3.09375,-1.09375 2.03125,0 3.3125,1.34375 1.29688,1.32813 1.29688,3.67188 0,1.90625 -0.57813,3 -0.5625,1.07812 -1.65625,1.6875 -1.07812,0.59375 -2.375,0.59375 -2.0625,0 -3.34375,-1.32813 -1.28125,-1.32812 -1.28125,-3.8125 z m 1.71875,0 q 0,1.89063 0.82813,2.82813 0.82812,0.9375 2.07812,0.9375 1.25,0 2.0625,-0.9375 0.82813,-0.95313 0.82813,-2.89063 0,-1.82812 -0.82813,-2.76562 -0.82812,-0.9375 -2.0625,-0.9375 -1.25,0 -2.07812,0.9375 -0.82813,0.9375 -0.82813,2.82812 z m 15.67261,4.92188 0,-1.25 q -0.9375,1.46875 -2.75,1.46875 -1.17188,0 -2.17188,-0.64063 -0.98437,-0.65625 -1.53125,-1.8125 -0.53125,-1.17187 -0.53125,-2.6875 0,-1.46875 0.48438,-2.67187 0.5,-1.20313 1.46875,-1.84375 0.98437,-0.64063 2.20312,-0.64063 0.89063,0 1.57813,0.375 0.70312,0.375 1.14062,0.98438 l 0,-4.875 1.65625,0 0,13.59375 -1.54687,0 z m -5.28125,-4.92188 q 0,1.89063 0.79687,2.82813 0.8125,0.9375 1.89063,0.9375 1.09375,0 1.85937,-0.89063 0.76563,-0.89062 0.76563,-2.73437 0,-2.01563 -0.78125,-2.95313 -0.78125,-0.95312 -1.92188,-0.95312 -1.10937,0 -1.85937,0.90625 -0.75,0.90625 -0.75,2.85937 z m 15.71945,4.92188 0,-1.45313 q -1.14062,1.67188 -3.125,1.67188 -0.85937,0 -1.625,-0.32813 -0.75,-0.34375 -1.125,-0.84375 -0.35937,-0.5 -0.51562,-1.23437 -0.0937,-0.5 -0.0937,-1.5625 l 0,-6.10938 1.67187,0 0,5.46875 q 0,1.3125 0.0937,1.76563 0.15625,0.65625 0.67188,1.03125 0.51562,0.375 1.26562,0.375 0.75,0 1.40625,-0.375 0.65625,-0.39063 0.92188,-1.04688 0.28125,-0.67187 0.28125,-1.9375 l 0,-5.28125 1.67187,0 0,9.85938 -1.5,0 z m 3.89136,0 0,-13.59375 1.67187,0 0,13.59375 -1.67187,0 z m 10.92605,-3.17188 1.71875,0.21875 q -0.40625,1.5 -1.51562,2.34375 -1.09375,0.82813 -2.8125,0.82813 -2.15625,0 -3.42188,-1.32813 -1.26562,-1.32812 -1.26562,-3.73437 0,-2.48438 1.26562,-3.85938 1.28125,-1.375 3.32813,-1.375 1.98437,0 3.23437,1.34375 1.25,1.34375 1.25,3.79688 0,0.14062 -0.0156,0.4375 l -7.34375,0 q 0.0937,1.625 0.92187,2.48437 0.82813,0.85938 2.0625,0.85938 0.90625,0 1.54688,-0.46875 0.65625,-0.48438 1.04687,-1.54688 z m -5.48437,-2.70312 5.5,0 q -0.10938,-1.23438 -0.625,-1.85938 -0.79688,-0.96875 -2.07813,-0.96875 -1.14062,0 -1.9375,0.78125 -0.78125,0.76563 -0.85937,2.04688 z m 17.4809,9.875 q -1.375,-1.75 -2.32813,-4.07813 -0.95312,-2.34375 -0.95312,-4.84375 0,-2.21875 0.70312,-4.23437 0.84375,-2.34375 2.57813,-4.67188 l 1.20312,0 q -1.125,1.92188 -1.48437,2.75 -0.5625,1.28125 -0.89063,2.67188 -0.40625,1.73437 -0.40625,3.48437 0,4.46875 2.78125,8.92188 l -1.20312,0 z m 5.61892,-4 -3.60937,-13.59375 1.84375,0 2.0625,8.90625 q 0.34375,1.40625 0.57812,2.78125 0.51563,-2.17188 0.60938,-2.51563 l 2.59375,-9.17187 2.17187,0 1.95313,6.875 q 0.73437,2.5625 1.04687,4.8125 0.26563,-1.28125 0.6875,-2.95313 l 2.125,-8.73437 1.8125,0 -3.73437,13.59375 -1.73438,0 -2.85937,-10.35938 q -0.35938,-1.29687 -0.42188,-1.59375 -0.21875,0.9375 -0.40625,1.59375 l -2.89062,10.35938 -1.82813,0 z m 15.03055,-11.6875 0,-1.90625 1.67188,0 0,1.90625 -1.67188,0 z m 0,11.6875 0,-9.85938 1.67188,0 0,9.85938 -1.67188,0 z m 4.44168,0 0,-13.59375 9.17188,0 0,1.59375 -7.375,0 0,4.21875 6.375,0 0,1.60937 -6.375,0 0,6.17188 -1.79688,0 z m 11.09912,-11.6875 0,-1.90625 1.67188,0 0,1.90625 -1.67188,0 z m 0,11.6875 0,-9.85938 1.67188,0 0,9.85938 -1.67188,0 z m 5.22296,4 -1.18753,0 q 2.76566,-4.45313 2.76566,-8.92188 0,-1.73437 -0.39063,-3.45312 -0.32812,-1.39063 -0.89062,-2.67188 -0.35938,-0.84375 -1.48441,-2.78125 l 1.18753,0 q 1.75,2.32813 2.57813,4.67188 0.71875,2.01562 0.71875,4.23437 0,2.5 -0.96875,4.84375 -0.95313,2.32813 -2.32813,4.07813 z"
       id="path53"
       inkscape:connector-curvature="0"
       style="fill:#000000;fill-rule:nonzero" />
    <path
       d="m 160.02887,146.59055 0,47.84253"
       id="path55"
       inkscape:connector-curvature="0"
       style="fill:#000000;fill-opacity:0;fill-rule:evenodd" />
    <path
       d="m 160.02887,146.59055 0,41.84253"
       id="path57"
       inkscape:connector-curvature="0"
       style="fill-rule:evenodd;stroke:#595959;stroke-width:1;stroke-linecap:butt;stroke-linejoin:round" />
    <path
       d="m 158.37714,188.43307 1.65173,4.5381 1.65174,-4.5381 z"
       id="path59"
       inkscape:connector-curvature="0"
       style="fill:#595959;fill-rule:evenodd;stroke:#595959;stroke-width:1;stroke-linecap:butt" />
    <path
       d="m 257.0525,220.44357 104.09448,0"
       id="path61"
       inkscape:connector-curvature="0"
       style="fill:#000000;fill-opacity:0;fill-rule:evenodd" />
    <path
       d="m 257.0525,220.44357 98.09448,0"
       id="path63"
       inkscape:connector-curvature="0"
       style="fill-rule:evenodd;stroke:#595959;stroke-width:1;stroke-linecap:butt;stroke-linejoin:round" />
    <path
       d="m 355.14697,222.0953 4.53812,-1.65173 -4.53812,-1.65174 z"
       id="path65"
       inkscape:connector-curvature="0"
       style="fill:#595959;fill-rule:evenodd;stroke:#595959;stroke-width:1;stroke-linecap:butt" />
    <path
       d="m 573.5276,186.93176 60.66138,0 0,33.51181 -60.66138,0 z"
       id="path67"
       inkscape:connector-curvature="0"
       style="fill:#000000;fill-opacity:0;fill-rule:evenodd" />
    <path
       d="m 587.3938,208.73175 1.9375,-9.3125 3.89063,0 q 1.01562,0 1.51562,0.23437 0.5,0.23438 0.82813,0.79688 0.34375,0.5625 0.34375,1.26562 0,0.57813 -0.25,1.17188 -0.23438,0.59375 -0.59375,0.98437 -0.34375,0.39063 -0.71875,0.59375 -0.375,0.1875 -0.78125,0.28125 -0.90625,0.20313 -1.8125,0.20313 l -2.32813,0 -0.79687,3.78125 -1.23438,0 z m 2.25,-4.82813 2.04688,0 q 1.20312,0 1.75,-0.25 0.5625,-0.26562 0.89062,-0.79687 0.34375,-0.53125 0.34375,-1.10938 0,-0.46875 -0.1875,-0.75 -0.17187,-0.29687 -0.5,-0.42187 -0.3125,-0.14063 -1.23437,-0.14063 l -2.39063,0 -0.71875,3.46875 z"
       id="path69"
       inkscape:connector-curvature="0"
       style="fill:#000000;fill-rule:nonzero" />
    <path
       d="m 597.7679,213.73175 1.1875,-5.70313 -2.10937,0 0.15625,-0.73437 5.0625,0 -0.15625,0.73437 -2.09375,0 -1.1875,5.70313 -0.85938,0 z m 6.82739,-0.57813 q -0.42187,0.35938 -0.8125,0.53125 -0.375,0.15625 -0.8125,0.15625 -0.64062,0 -1.04687,-0.375 -0.39063,-0.39062 -0.39063,-0.98437 0,-0.39063 0.17188,-0.6875 0.1875,-0.29688 0.48437,-0.48438 0.29688,-0.1875 0.71875,-0.26562 0.26563,-0.0469 1.01563,-0.0781 0.75,-0.0312 1.07812,-0.15625 0.0937,-0.32812 0.0937,-0.54687 0,-0.28125 -0.20312,-0.4375 -0.28125,-0.21875 -0.8125,-0.21875 -0.5,0 -0.82813,0.23437 -0.3125,0.21875 -0.45312,0.625 l -0.79688,-0.0781 q 0.23438,-0.6875 0.76563,-1.04688 0.54687,-0.375 1.35937,-0.375 0.85938,0 1.35938,0.40625 0.39062,0.3125 0.39062,0.79688 0,0.375 -0.10937,0.875 l -0.25,1.15625 q -0.125,0.54687 -0.125,0.89062 0,0.23438 0.0937,0.64063 l -0.8125,0 q -0.0625,-0.23438 -0.0781,-0.57813 z m 0.28125,-1.78125 q -0.15625,0.0625 -0.35937,0.0937 -0.1875,0.0312 -0.625,0.0781 -0.70313,0.0625 -0.98438,0.15625 -0.28125,0.0937 -0.4375,0.29687 -0.14062,0.20313 -0.14062,0.45313 0,0.34375 0.21875,0.5625 0.23437,0.20312 0.67187,0.20312 0.39063,0 0.75,-0.20312 0.375,-0.20313 0.57813,-0.57813 0.21875,-0.375 0.32812,-1.0625 z m 1.49829,2.35938 0.98438,-4.67188 0.71875,0 -0.17188,0.8125 q 0.46875,-0.46875 0.875,-0.6875 0.40625,-0.21875 0.82813,-0.21875 0.57812,0 0.89062,0.3125 0.32813,0.29688 0.32813,0.8125 0,0.25 -0.10938,0.8125 l -0.59375,2.82813 -0.79687,0 0.625,-2.95313 q 0.0781,-0.4375 0.0781,-0.64062 0,-0.23438 -0.15625,-0.375 -0.15625,-0.15625 -0.46875,-0.15625 -0.60937,0 -1.09375,0.45312 -0.46875,0.4375 -0.6875,1.5 l -0.45312,2.17188 -0.79688,0 z m 4.88892,0.42187 0.8125,0.0781 q -0.0156,0.26562 0.0625,0.40625 0.0781,0.14062 0.23437,0.20312 0.21875,0.10938 0.5625,0.10938 0.71875,0 1.03125,-0.375 0.21875,-0.25 0.39063,-1.09375 l 0.0781,-0.375 q -0.625,0.625 -1.32812,0.625 -0.70313,0 -1.1875,-0.51563 -0.46875,-0.53125 -0.46875,-1.48437 0,-0.78125 0.375,-1.4375 0.375,-0.65625 0.89062,-0.98438 0.53125,-0.34375 1.07813,-0.34375 0.92187,0 1.40625,0.85938 l 0.15625,-0.76563 0.73437,0 -0.9375,4.51563 q -0.15625,0.73437 -0.40625,1.14062 -0.25,0.42188 -0.70312,0.65625 -0.4375,0.23438 -1.01563,0.23438 -0.5625,0 -0.96875,-0.15625 -0.40625,-0.14063 -0.60937,-0.42188 -0.20313,-0.28125 -0.20313,-0.64062 0,-0.10938 0.0156,-0.23438 z m 1,-2.48437 q 0,0.46875 0.0937,0.71875 0.125,0.34375 0.35937,0.51562 0.25,0.17188 0.5625,0.17188 0.39063,0 0.76563,-0.26563 0.39062,-0.28125 0.625,-0.84375 0.25,-0.57812 0.25,-1.10937 0,-0.57813 -0.32813,-0.90625 -0.3125,-0.34375 -0.78125,-0.34375 -0.29687,0 -0.57812,0.15625 -0.26563,0.15625 -0.5,0.46875 -0.23438,0.3125 -0.35938,0.76562 -0.10937,0.4375 -0.10937,0.67188 z m 4.12323,0.29687 q 0,-1.375 0.8125,-2.26562 0.65625,-0.73438 1.73437,-0.73438 0.84375,0 1.35938,0.53125 0.51562,0.51563 0.51562,1.40625 0,0.8125 -0.32812,1.5 -0.32813,0.6875 -0.92188,1.0625 -0.59375,0.375 -1.26562,0.375 -0.54688,0 -1,-0.23437 -0.4375,-0.23438 -0.67188,-0.65625 -0.23437,-0.4375 -0.23437,-0.98438 z m 0.79687,-0.0781 q 0,0.65625 0.3125,1 0.32813,0.32812 0.8125,0.32812 0.25,0 0.5,-0.0937 0.25,-0.10937 0.46875,-0.3125 0.21875,-0.21875 0.35938,-0.48437 0.15625,-0.26563 0.25,-0.57813 0.14062,-0.4375 0.14062,-0.84375 0,-0.625 -0.32812,-0.96875 -0.3125,-0.35937 -0.79688,-0.35937 -0.375,0 -0.6875,0.1875 -0.29687,0.17187 -0.54687,0.51562 -0.25,0.34375 -0.375,0.79688 -0.10938,0.45312 -0.10938,0.8125 z"
       id="path71"
       inkscape:connector-curvature="0"
       style="fill:#000000;fill-rule:nonzero" />
    <path
       d="m 281.27298,186.93176 55.65353,0 0,33.51181 -55.65353,0 z"
       id="path73"
       inkscape:connector-curvature="0"
       style="fill:#000000;fill-opacity:0;fill-rule:evenodd" />
    <path
       d="m 293.87027,208.73175 1.9375,-9.3125 3.89062,0 q 1.01563,0 1.51563,0.23437 0.5,0.23438 0.82812,0.79688 0.34375,0.5625 0.34375,1.26562 0,0.57813 -0.25,1.17188 -0.23437,0.59375 -0.59375,0.98437 -0.34375,0.39063 -0.71875,0.59375 -0.375,0.1875 -0.78125,0.28125 -0.90625,0.20313 -1.8125,0.20313 l -2.32812,0 -0.79688,3.78125 -1.23437,0 z m 2.25,-4.82813 2.04687,0 q 1.20313,0 1.75,-0.25 0.5625,-0.26562 0.89063,-0.79687 0.34375,-0.53125 0.34375,-1.10938 0,-0.46875 -0.1875,-0.75 -0.17188,-0.29687 -0.5,-0.42187 -0.3125,-0.14063 -1.23438,-0.14063 l -2.39062,0 -0.71875,3.46875 z"
       id="path75"
       inkscape:connector-curvature="0"
       style="fill:#000000;fill-rule:nonzero" />
    <path
       d="m 304.3538,213.09113 -0.125,0.64062 q -0.29688,0.0781 -0.5625,0.0781 -0.46875,0 -0.75,-0.23438 -0.21875,-0.17187 -0.21875,-0.48437 0,-0.14063 0.125,-0.70313 l 0.5625,-2.70312 -0.625,0 0.125,-0.625 0.625,0 0.25,-1.14063 0.90625,-0.54687 -0.35938,1.6875 0.78125,0 -0.125,0.625 -0.78125,0 -0.54687,2.57812 q -0.0937,0.48438 -0.0937,0.57813 0,0.14062 0.0781,0.21875 0.0781,0.0781 0.26563,0.0781 0.26562,0 0.46875,-0.0469 z m 3.76257,0.0625 q -0.42187,0.35937 -0.8125,0.53125 -0.375,0.15625 -0.8125,0.15625 -0.64062,0 -1.04687,-0.375 -0.39063,-0.39063 -0.39063,-0.98438 0,-0.39062 0.17188,-0.6875 0.1875,-0.29687 0.48437,-0.48437 0.29688,-0.1875 0.71875,-0.26563 0.26563,-0.0469 1.01563,-0.0781 0.75,-0.0312 1.07812,-0.15625 0.0937,-0.32813 0.0937,-0.54688 0,-0.28125 -0.20312,-0.4375 -0.28125,-0.21875 -0.8125,-0.21875 -0.5,0 -0.82813,0.23438 -0.3125,0.21875 -0.45312,0.625 l -0.79688,-0.0781 q 0.23438,-0.6875 0.76563,-1.04687 0.54687,-0.375 1.35937,-0.375 0.85938,0 1.35938,0.40625 0.39062,0.3125 0.39062,0.79687 0,0.375 -0.10937,0.875 l -0.25,1.15625 q -0.125,0.54688 -0.125,0.89063 0,0.23437 0.0937,0.64062 l -0.8125,0 q -0.0625,-0.23437 -0.0781,-0.57812 z m 0.28125,-1.78125 q -0.15625,0.0625 -0.35937,0.0937 -0.1875,0.0312 -0.625,0.0781 -0.70313,0.0625 -0.98438,0.15625 -0.28125,0.0937 -0.4375,0.29688 -0.14062,0.20312 -0.14062,0.45312 0,0.34375 0.21875,0.5625 0.23437,0.20313 0.67187,0.20313 0.39063,0 0.75,-0.20313 0.375,-0.20312 0.57813,-0.57812 0.21875,-0.375 0.32812,-1.0625 z m 1.49829,2.35937 0.98438,-4.67187 0.70312,0 -0.20312,0.95312 q 0.35937,-0.53125 0.70312,-0.78125 0.34375,-0.26562 0.70313,-0.26562 0.23437,0 0.59375,0.17187 l -0.32813,0.73438 q -0.20312,-0.15625 -0.45312,-0.15625 -0.42188,0 -0.85938,0.46875 -0.4375,0.46875 -0.6875,1.67187 l -0.39062,1.875 -0.76563,0 z m 2.90851,0.42188 0.8125,0.0781 q -0.0156,0.26563 0.0625,0.40625 0.0781,0.14063 0.23438,0.20313 0.21875,0.10937 0.5625,0.10937 0.71875,0 1.03125,-0.375 0.21875,-0.25 0.39062,-1.09375 l 0.0781,-0.375 q -0.625,0.625 -1.32813,0.625 -0.70312,0 -1.1875,-0.51562 -0.46875,-0.53125 -0.46875,-1.48438 0,-0.78125 0.375,-1.4375 0.375,-0.65625 0.89063,-0.98437 0.53125,-0.34375 1.07812,-0.34375 0.92188,0 1.40625,0.85937 l 0.15625,-0.76562 0.73438,0 -0.9375,4.51562 q -0.15625,0.73438 -0.40625,1.14063 -0.25,0.42187 -0.70313,0.65625 -0.4375,0.23437 -1.01562,0.23437 -0.5625,0 -0.96875,-0.15625 -0.40625,-0.14062 -0.60938,-0.42187 -0.20312,-0.28125 -0.20312,-0.64063 0,-0.10937 0.0156,-0.23437 z m 1,-2.48438 q 0,0.46875 0.0937,0.71875 0.125,0.34375 0.35938,0.51563 0.25,0.17187 0.5625,0.17187 0.39062,0 0.76562,-0.26562 0.39063,-0.28125 0.625,-0.84375 0.25,-0.57813 0.25,-1.10938 0,-0.57812 -0.32812,-0.90625 -0.3125,-0.34375 -0.78125,-0.34375 -0.29688,0 -0.57813,0.15625 -0.26562,0.15625 -0.5,0.46875 -0.23437,0.3125 -0.35937,0.76563 -0.10938,0.4375 -0.10938,0.67187 z m 7.42017,0.46875 0.76562,0.0937 q -0.17187,0.5625 -0.76562,1.09375 -0.59375,0.51563 -1.4375,0.51563 -0.51563,0 -0.95313,-0.23438 -0.42187,-0.25 -0.65625,-0.70312 -0.21875,-0.45313 -0.21875,-1.04688 0,-0.76562 0.34375,-1.48437 0.35938,-0.71875 0.92188,-1.0625 0.5625,-0.34375 1.21875,-0.34375 0.82812,0 1.32812,0.51562 0.5,0.51563 0.5,1.40625 0,0.34375 -0.0625,0.70313 l -3.4375,0 q -0.0156,0.14062 -0.0156,0.25 0,0.65625 0.29687,1 0.3125,0.34375 0.75,0.34375 0.40625,0 0.79688,-0.26563 0.39062,-0.26562 0.625,-0.78125 z m -2.3125,-1.15625 2.60937,0 q 0,-0.10937 0,-0.17187 0,-0.59375 -0.29687,-0.90625 -0.29688,-0.32813 -0.76563,-0.32813 -0.5,0 -0.92187,0.35938 -0.42188,0.34375 -0.625,1.04687 z m 5.67016,2.10938 -0.125,0.64062 q -0.29687,0.0781 -0.5625,0.0781 -0.46875,0 -0.75,-0.23438 -0.21875,-0.17187 -0.21875,-0.48437 0,-0.14063 0.125,-0.70313 l 0.5625,-2.70312 -0.625,0 0.125,-0.625 0.625,0 0.25,-1.14063 0.90625,-0.54687 -0.35937,1.6875 0.78125,0 -0.125,0.625 -0.78125,0 -0.54688,2.57812 q -0.0937,0.48438 -0.0937,0.57813 0,0.14062 0.0781,0.21875 0.0781,0.0781 0.26562,0.0781 0.26563,0 0.46875,-0.0469 z"
       id="path77"
       inkscape:connector-curvature="0"
       style="fill:#000000;fill-rule:nonzero" />
    <path
       d="m 458.1706,246.45932 0,60.31497"
       id="path79"
       inkscape:connector-curvature="0"
       style="fill:#000000;fill-opacity:0;fill-rule:evenodd" />
    <path
       d="m 458.1706,246.45932 0,54.31497"
       id="path81"
       inkscape:connector-curvature="0"
       style="fill-rule:evenodd;stroke:#595959;stroke-width:1;stroke-linecap:butt;stroke-linejoin:round" />
    <path
       d="m 456.51886,300.7743 1.65173,4.53809 1.65174,-4.53809 z"
       id="path83"
       inkscape:connector-curvature="0"
       style="fill:#595959;fill-rule:evenodd;stroke:#595959;stroke-width:1;stroke-linecap:butt" />
    <path
       d="m 160.02887,246.45932 0,88.53543 201.13385,0"
       id="path85"
       inkscape:connector-curvature="0"
       style="fill:#000000;fill-opacity:0;fill-rule:evenodd" />
    <path
       d="m 160.02887,246.45932 0,88.53543 195.13385,0"
       id="path87"
       inkscape:connector-curvature="0"
       style="fill-rule:evenodd;stroke:#595959;stroke-width:1;stroke-linecap:butt;stroke-linejoin:round" />
    <path
       d="m 355.16272,336.64648 4.53812,-1.65173 -4.53812,-1.65174 z"
       id="path89"
       inkscape:connector-curvature="0"
       style="fill:#595959;fill-rule:evenodd;stroke:#595959;stroke-width:1;stroke-linecap:butt" />
    <path
       d="m 652.52234,220.44357 -97.32288,0"
       id="path91"
       inkscape:connector-curvature="0"
       style="fill:#000000;fill-opacity:0;fill-rule:evenodd" />
    <path
       d="m 652.52234,220.44357 -91.32288,0"
       id="path93"
       inkscape:connector-curvature="0"
       style="fill-rule:evenodd;stroke:#595959;stroke-width:1;stroke-linecap:butt;stroke-linejoin:round" />
    <path
       d="m 561.19946,218.79184 -4.53809,1.65173 4.53809,1.65174 z"
       id="path95"
       inkscape:connector-curvature="0"
       style="fill:#595959;fill-rule:evenodd;stroke:#595959;stroke-width:1;stroke-linecap:butt" />
    <path
       d="m 458.1706,194.42783 0,-54.80316"
       id="path97"
       inkscape:connector-curvature="0"
       style="fill:#000000;fill-opacity:0;fill-rule:evenodd" />
    <path
       d="m 458.1706,194.42783 0,-48.80316"
       id="path99"
       inkscape:connector-curvature="0"
       style="fill-rule:evenodd;stroke:#595959;stroke-width:1;stroke-linecap:butt;stroke-linejoin:round" />
    <path
       d="m 459.82233,145.62466 -1.65173,-4.53809 -1.65174,4.53809 z"
       id="path101"
       inkscape:connector-curvature="0"
       style="fill:#595959;fill-rule:evenodd;stroke:#595959;stroke-width:1;stroke-linecap:butt" />
    <path
       d="m 749.54596,239.59317 0,95.40158 -194.36224,0"
       id="path103"
       inkscape:connector-curvature="0"
       style="fill:#000000;fill-opacity:0;fill-rule:evenodd" />
    <path
       d="m 749.54596,239.59317 0,95.40158 -188.36224,0"
       id="path105"
       inkscape:connector-curvature="0"
       style="fill-rule:evenodd;stroke:#595959;stroke-width:1;stroke-linecap:butt;stroke-linejoin:round" />
    <path
       d="m 561.1837,333.34302 -4.53809,1.65173 4.53809,1.65174 z"
       id="path107"
       inkscape:connector-curvature="0"
       style="fill:#595959;fill-rule:evenodd;stroke:#595959;stroke-width:1;stroke-linecap:butt" />
    <path
       d="m 281.27298,301.48294 55.65353,0 0,33.51181 -55.65353,0 z"
       id="path109"
       inkscape:connector-curvature="0"
       style="fill:#000000;fill-opacity:0;fill-rule:evenodd" />
    <path
       d="m 293.87027,323.28293 1.9375,-9.3125 3.89062,0 q 1.01563,0 1.51563,0.23438 0.5,0.23437 0.82812,0.79687 0.34375,0.5625 0.34375,1.26563 0,0.57812 -0.25,1.17187 -0.23437,0.59375 -0.59375,0.98438 -0.34375,0.39062 -0.71875,0.59375 -0.375,0.1875 -0.78125,0.28125 -0.90625,0.20312 -1.8125,0.20312 l -2.32812,0 -0.79688,3.78125 -1.23437,0 z m 2.25,-4.82812 2.04687,0 q 1.20313,0 1.75,-0.25 0.5625,-0.26563 0.89063,-0.79688 0.34375,-0.53125 0.34375,-1.10937 0,-0.46875 -0.1875,-0.75 -0.17188,-0.29688 -0.5,-0.42188 -0.3125,-0.14062 -1.23438,-0.14062 l -2.39062,0 -0.71875,3.46875 z"
       id="path111"
       inkscape:connector-curvature="0"
       style="fill:#000000;fill-rule:nonzero" />
    <path
       d="m 304.3538,327.6423 -0.125,0.64062 q -0.29688,0.0781 -0.5625,0.0781 -0.46875,0 -0.75,-0.23438 -0.21875,-0.17187 -0.21875,-0.48437 0,-0.14063 0.125,-0.70313 l 0.5625,-2.70312 -0.625,0 0.125,-0.625 0.625,0 0.25,-1.14063 0.90625,-0.54687 -0.35938,1.6875 0.78125,0 -0.125,0.625 -0.78125,0 -0.54687,2.57812 q -0.0937,0.48438 -0.0937,0.57813 0,0.14062 0.0781,0.21875 0.0781,0.0781 0.26563,0.0781 0.26562,0 0.46875,-0.0469 z m 3.76257,0.0625 q -0.42187,0.35937 -0.8125,0.53125 -0.375,0.15625 -0.8125,0.15625 -0.64062,0 -1.04687,-0.375 -0.39063,-0.39063 -0.39063,-0.98438 0,-0.39062 0.17188,-0.6875 0.1875,-0.29687 0.48437,-0.48437 0.29688,-0.1875 0.71875,-0.26563 0.26563,-0.0469 1.01563,-0.0781 0.75,-0.0312 1.07812,-0.15625 0.0937,-0.32813 0.0937,-0.54688 0,-0.28125 -0.20312,-0.4375 -0.28125,-0.21875 -0.8125,-0.21875 -0.5,0 -0.82813,0.23438 -0.3125,0.21875 -0.45312,0.625 l -0.79688,-0.0781 q 0.23438,-0.6875 0.76563,-1.04687 0.54687,-0.375 1.35937,-0.375 0.85938,0 1.35938,0.40625 0.39062,0.3125 0.39062,0.79687 0,0.375 -0.10937,0.875 l -0.25,1.15625 q -0.125,0.54688 -0.125,0.89063 0,0.23437 0.0937,0.64062 l -0.8125,0 q -0.0625,-0.23437 -0.0781,-0.57812 z m 0.28125,-1.78125 q -0.15625,0.0625 -0.35937,0.0937 -0.1875,0.0312 -0.625,0.0781 -0.70313,0.0625 -0.98438,0.15625 -0.28125,0.0937 -0.4375,0.29688 -0.14062,0.20312 -0.14062,0.45312 0,0.34375 0.21875,0.5625 0.23437,0.20313 0.67187,0.20313 0.39063,0 0.75,-0.20313 0.375,-0.20312 0.57813,-0.57812 0.21875,-0.375 0.32812,-1.0625 z m 1.49829,2.35937 0.98438,-4.67187 0.70312,0 -0.20312,0.95312 q 0.35937,-0.53125 0.70312,-0.78125 0.34375,-0.26562 0.70313,-0.26562 0.23437,0 0.59375,0.17187 l -0.32813,0.73438 q -0.20312,-0.15625 -0.45312,-0.15625 -0.42188,0 -0.85938,0.46875 -0.4375,0.46875 -0.6875,1.67187 l -0.39062,1.875 -0.76563,0 z m 2.90851,0.42188 0.8125,0.0781 q -0.0156,0.26563 0.0625,0.40625 0.0781,0.14063 0.23438,0.20313 0.21875,0.10937 0.5625,0.10937 0.71875,0 1.03125,-0.375 0.21875,-0.25 0.39062,-1.09375 l 0.0781,-0.375 q -0.625,0.625 -1.32813,0.625 -0.70312,0 -1.1875,-0.51562 -0.46875,-0.53125 -0.46875,-1.48438 0,-0.78125 0.375,-1.4375 0.375,-0.65625 0.89063,-0.98437 0.53125,-0.34375 1.07812,-0.34375 0.92188,0 1.40625,0.85937 l 0.15625,-0.76562 0.73438,0 -0.9375,4.51562 q -0.15625,0.73438 -0.40625,1.14063 -0.25,0.42187 -0.70313,0.65625 -0.4375,0.23437 -1.01562,0.23437 -0.5625,0 -0.96875,-0.15625 -0.40625,-0.14062 -0.60938,-0.42187 -0.20312,-0.28125 -0.20312,-0.64063 0,-0.10937 0.0156,-0.23437 z m 1,-2.48438 q 0,0.46875 0.0937,0.71875 0.125,0.34375 0.35938,0.51563 0.25,0.17187 0.5625,0.17187 0.39062,0 0.76562,-0.26562 0.39063,-0.28125 0.625,-0.84375 0.25,-0.57813 0.25,-1.10938 0,-0.57812 -0.32812,-0.90625 -0.3125,-0.34375 -0.78125,-0.34375 -0.29688,0 -0.57813,0.15625 -0.26562,0.15625 -0.5,0.46875 -0.23437,0.3125 -0.35937,0.76563 -0.10938,0.4375 -0.10938,0.67187 z m 7.42017,0.46875 0.76562,0.0937 q -0.17187,0.5625 -0.76562,1.09375 -0.59375,0.51563 -1.4375,0.51563 -0.51563,0 -0.95313,-0.23438 -0.42187,-0.25 -0.65625,-0.70312 -0.21875,-0.45313 -0.21875,-1.04688 0,-0.76562 0.34375,-1.48437 0.35938,-0.71875 0.92188,-1.0625 0.5625,-0.34375 1.21875,-0.34375 0.82812,0 1.32812,0.51562 0.5,0.51563 0.5,1.40625 0,0.34375 -0.0625,0.70313 l -3.4375,0 q -0.0156,0.14062 -0.0156,0.25 0,0.65625 0.29687,1 0.3125,0.34375 0.75,0.34375 0.40625,0 0.79688,-0.26563 0.39062,-0.26562 0.625,-0.78125 z m -2.3125,-1.15625 2.60937,0 q 0,-0.10937 0,-0.17187 0,-0.59375 -0.29687,-0.90625 -0.29688,-0.32813 -0.76563,-0.32813 -0.5,0 -0.92187,0.35938 -0.42188,0.34375 -0.625,1.04687 z m 5.67016,2.10938 -0.125,0.64062 q -0.29687,0.0781 -0.5625,0.0781 -0.46875,0 -0.75,-0.23438 -0.21875,-0.17187 -0.21875,-0.48437 0,-0.14063 0.125,-0.70313 l 0.5625,-2.70312 -0.625,0 0.125,-0.625 0.625,0 0.25,-1.14063 0.90625,-0.54687 -0.35937,1.6875 0.78125,0 -0.125,0.625 -0.78125,0 -0.54688,2.57812 q -0.0937,0.48438 -0.0937,0.57813 0,0.14062 0.0781,0.21875 0.0781,0.0781 0.26562,0.0781 0.26563,0 0.46875,-0.0469 z"
       id="path113"
       inkscape:connector-curvature="0"
       style="fill:#000000;fill-rule:nonzero" />
    <path
       d="m 573.5302,301.48294 60.66138,0 0,33.51181 -60.66138,0 z"
       id="path115"
       inkscape:connector-curvature="0"
       style="fill:#000000;fill-opacity:0;fill-rule:evenodd" />
    <path
       d="m 587.3964,323.28293 1.9375,-9.3125 3.89062,0 q 1.01563,0 1.51563,0.23438 0.5,0.23437 0.82812,0.79687 0.34375,0.5625 0.34375,1.26563 0,0.57812 -0.25,1.17187 -0.23437,0.59375 -0.59375,0.98438 -0.34375,0.39062 -0.71875,0.59375 -0.375,0.1875 -0.78125,0.28125 -0.90625,0.20312 -1.8125,0.20312 l -2.32812,0 -0.79688,3.78125 -1.23437,0 z m 2.25,-4.82812 2.04687,0 q 1.20313,0 1.75,-0.25 0.5625,-0.26563 0.89063,-0.79688 0.34375,-0.53125 0.34375,-1.10937 0,-0.46875 -0.1875,-0.75 -0.17188,-0.29688 -0.5,-0.42188 -0.3125,-0.14062 -1.23438,-0.14062 l -2.39062,0 -0.71875,3.46875 z"
       id="path117"
       inkscape:connector-curvature="0"
       style="fill:#000000;fill-rule:nonzero" />
    <path
       d="m 597.7705,328.28293 1.1875,-5.70312 -2.10938,0 0.15625,-0.73438 5.0625,0 -0.15625,0.73438 -2.09375,0 -1.1875,5.70312 -0.85937,0 z m 6.82739,-0.57812 q -0.42187,0.35937 -0.8125,0.53125 -0.375,0.15625 -0.8125,0.15625 -0.64062,0 -1.04687,-0.375 -0.39063,-0.39063 -0.39063,-0.98438 0,-0.39062 0.17188,-0.6875 0.1875,-0.29687 0.48437,-0.48437 0.29688,-0.1875 0.71875,-0.26563 0.26563,-0.0469 1.01563,-0.0781 0.75,-0.0312 1.07812,-0.15625 0.0937,-0.32813 0.0937,-0.54688 0,-0.28125 -0.20312,-0.4375 -0.28125,-0.21875 -0.8125,-0.21875 -0.5,0 -0.82813,0.23438 -0.3125,0.21875 -0.45312,0.625 l -0.79688,-0.0781 q 0.23438,-0.6875 0.76563,-1.04687 0.54687,-0.375 1.35937,-0.375 0.85938,0 1.35938,0.40625 0.39062,0.3125 0.39062,0.79687 0,0.375 -0.10937,0.875 l -0.25,1.15625 q -0.125,0.54688 -0.125,0.89063 0,0.23437 0.0937,0.64062 l -0.8125,0 q -0.0625,-0.23437 -0.0781,-0.57812 z m 0.28125,-1.78125 q -0.15625,0.0625 -0.35937,0.0937 -0.1875,0.0312 -0.625,0.0781 -0.70313,0.0625 -0.98438,0.15625 -0.28125,0.0937 -0.4375,0.29688 -0.14062,0.20312 -0.14062,0.45312 0,0.34375 0.21875,0.5625 0.23437,0.20313 0.67187,0.20313 0.39063,0 0.75,-0.20313 0.375,-0.20312 0.57813,-0.57812 0.21875,-0.375 0.32812,-1.0625 z m 1.49829,2.35937 0.98438,-4.67187 0.71875,0 -0.17188,0.8125 q 0.46875,-0.46875 0.875,-0.6875 0.40625,-0.21875 0.82813,-0.21875 0.57812,0 0.89062,0.3125 0.32813,0.29687 0.32813,0.8125 0,0.25 -0.10938,0.8125 l -0.59375,2.82812 -0.79687,0 0.625,-2.95312 q 0.0781,-0.4375 0.0781,-0.64063 0,-0.23437 -0.15625,-0.375 -0.15625,-0.15625 -0.46875,-0.15625 -0.60937,0 -1.09375,0.45313 -0.46875,0.4375 -0.6875,1.5 l -0.45312,2.17187 -0.79688,0 z m 4.88892,0.42188 0.8125,0.0781 q -0.0156,0.26563 0.0625,0.40625 0.0781,0.14063 0.23437,0.20313 0.21875,0.10937 0.5625,0.10937 0.71875,0 1.03125,-0.375 0.21875,-0.25 0.39063,-1.09375 l 0.0781,-0.375 q -0.625,0.625 -1.32812,0.625 -0.70313,0 -1.1875,-0.51562 -0.46875,-0.53125 -0.46875,-1.48438 0,-0.78125 0.375,-1.4375 0.375,-0.65625 0.89062,-0.98437 0.53125,-0.34375 1.07813,-0.34375 0.92187,0 1.40625,0.85937 l 0.15625,-0.76562 0.73437,0 -0.9375,4.51562 q -0.15625,0.73438 -0.40625,1.14063 -0.25,0.42187 -0.70312,0.65625 -0.4375,0.23437 -1.01563,0.23437 -0.5625,0 -0.96875,-0.15625 -0.40625,-0.14062 -0.60937,-0.42187 -0.20313,-0.28125 -0.20313,-0.64063 0,-0.10937 0.0156,-0.23437 z m 1,-2.48438 q 0,0.46875 0.0937,0.71875 0.125,0.34375 0.35937,0.51563 0.25,0.17187 0.5625,0.17187 0.39063,0 0.76563,-0.26562 0.39062,-0.28125 0.625,-0.84375 0.25,-0.57813 0.25,-1.10938 0,-0.57812 -0.32813,-0.90625 -0.3125,-0.34375 -0.78125,-0.34375 -0.29687,0 -0.57812,0.15625 -0.26563,0.15625 -0.5,0.46875 -0.23438,0.3125 -0.35938,0.76563 -0.10937,0.4375 -0.10937,0.67187 z m 4.12323,0.29688 q 0,-1.375 0.8125,-2.26563 0.65625,-0.73437 1.73437,-0.73437 0.84375,0 1.35938,0.53125 0.51562,0.51562 0.51562,1.40625 0,0.8125 -0.32812,1.5 -0.32813,0.6875 -0.92188,1.0625 -0.59375,0.375 -1.26562,0.375 -0.54688,0 -1,-0.23438 -0.4375,-0.23437 -0.67188,-0.65625 -0.23437,-0.4375 -0.23437,-0.98437 z m 0.79687,-0.0781 q 0,0.65625 0.3125,1 0.32813,0.32813 0.8125,0.32813 0.25,0 0.5,-0.0937 0.25,-0.10938 0.46875,-0.3125 0.21875,-0.21875 0.35938,-0.48438 0.15625,-0.26562 0.25,-0.57812 0.14062,-0.4375 0.14062,-0.84375 0,-0.625 -0.32812,-0.96875 -0.3125,-0.35938 -0.79688,-0.35938 -0.375,0 -0.6875,0.1875 -0.29687,0.17188 -0.54687,0.51563 -0.25,0.34375 -0.375,0.79687 -0.10938,0.45313 -0.10938,0.8125 z"
       id="path119"
       inkscape:connector-curvature="0"
       style="fill:#000000;fill-rule:nonzero" />
    <path
       d="m 458.1706,150.27034 60.66144,0 0,33.51181 -60.66144,0 z"
       id="path121"
       inkscape:connector-curvature="0"
       style="fill:#000000;fill-opacity:0;fill-rule:evenodd" />
    <path
       d="m 476.38785,172.07034 1.9375,-9.3125 6.04688,0 -0.21875,1.0625 -4.79688,0 -0.625,2.96875 4.89063,0 -0.21875,1.0625 -4.89063,0 -0.89062,4.21875 -1.23438,0 z"
       id="path123"
       inkscape:connector-curvature="0"
       style="fill:#000000;fill-rule:nonzero" />
    <path
       d="m 486.0917,176.42972 -0.125,0.64062 q -0.29688,0.0781 -0.5625,0.0781 -0.46875,0 -0.75,-0.23438 -0.21875,-0.17187 -0.21875,-0.48437 0,-0.14063 0.125,-0.70313 l 0.5625,-2.70312 -0.625,0 0.125,-0.625 0.625,0 0.25,-1.14063 0.90625,-0.54687 -0.35938,1.6875 0.78125,0 -0.125,0.625 -0.78125,0 -0.54687,2.57812 q -0.0937,0.48438 -0.0937,0.57813 0,0.14062 0.0781,0.21875 0.0781,0.0781 0.26563,0.0781 0.26562,0 0.46875,-0.0469 z m 0.74698,-1.125 q 0,-1.375 0.8125,-2.26563 0.65625,-0.73437 1.73437,-0.73437 0.84375,0 1.35938,0.53125 0.51562,0.51562 0.51562,1.40625 0,0.8125 -0.32812,1.5 -0.32813,0.6875 -0.92188,1.0625 -0.59375,0.375 -1.26562,0.375 -0.54688,0 -1,-0.23438 -0.4375,-0.23437 -0.67188,-0.65625 -0.23437,-0.4375 -0.23437,-0.98437 z m 0.79687,-0.0781 q 0,0.65625 0.3125,1 0.32813,0.32813 0.8125,0.32813 0.25,0 0.5,-0.0937 0.25,-0.10938 0.46875,-0.3125 0.21875,-0.21875 0.35938,-0.48438 0.15625,-0.26562 0.25,-0.57812 0.14062,-0.4375 0.14062,-0.84375 0,-0.625 -0.32812,-0.96875 -0.3125,-0.35938 -0.79688,-0.35938 -0.375,0 -0.6875,0.1875 -0.29687,0.17188 -0.54687,0.51563 -0.25,0.34375 -0.375,0.79687 -0.10938,0.45313 -0.10938,0.8125 z m 3.99829,1.84375 0.98438,-4.67187 0.71875,0 -0.17188,0.8125 q 0.46875,-0.46875 0.875,-0.6875 0.40625,-0.21875 0.82813,-0.21875 0.57812,0 0.89062,0.3125 0.32813,0.29687 0.32813,0.8125 0,0.25 -0.10938,0.8125 l -0.59375,2.82812 -0.79687,0 0.625,-2.95312 q 0.0781,-0.4375 0.0781,-0.64063 0,-0.23437 -0.15625,-0.375 -0.15625,-0.15625 -0.46875,-0.15625 -0.60937,0 -1.09375,0.45313 -0.46875,0.4375 -0.6875,1.5 l -0.45312,2.17187 -0.79688,0 z m 8.37327,-1.59375 0.76562,0.0937 q -0.17187,0.5625 -0.76562,1.09375 -0.59375,0.51563 -1.4375,0.51563 -0.51563,0 -0.95313,-0.23438 -0.42187,-0.25 -0.65625,-0.70312 -0.21875,-0.45313 -0.21875,-1.04688 0,-0.76562 0.34375,-1.48437 0.35938,-0.71875 0.92188,-1.0625 0.5625,-0.34375 1.21875,-0.34375 0.82812,0 1.32812,0.51562 0.5,0.51563 0.5,1.40625 0,0.34375 -0.0625,0.70313 l -3.4375,0 q -0.0156,0.14062 -0.0156,0.25 0,0.65625 0.29687,1 0.3125,0.34375 0.75,0.34375 0.40625,0 0.79688,-0.26563 0.39062,-0.26562 0.625,-0.78125 z m -2.3125,-1.15625 2.60937,0 q 0,-0.10937 0,-0.17187 0,-0.59375 -0.29687,-0.90625 -0.29688,-0.32813 -0.76563,-0.32813 -0.5,0 -0.92187,0.35938 -0.42188,0.34375 -0.625,1.04687 z"
       id="path125"
       inkscape:connector-curvature="0"
       style="fill:#000000;fill-rule:nonzero" />
    <path
       d="m 458.1706,259.85696 60.66144,0 0,33.51181 -60.66144,0 z"
       id="path127"
       inkscape:connector-curvature="0"
       style="fill:#000000;fill-opacity:0;fill-rule:evenodd" />
    <path
       d="m 476.38785,281.65695 1.9375,-9.3125 6.04688,0 -0.21875,1.0625 -4.79688,0 -0.625,2.96875 4.89063,0 -0.21875,1.0625 -4.89063,0 -0.89062,4.21875 -1.23438,0 z"
       id="path129"
       inkscape:connector-curvature="0"
       style="fill:#000000;fill-rule:nonzero" />
    <path
       d="m 486.0917,286.01633 -0.125,0.64062 q -0.29688,0.0781 -0.5625,0.0781 -0.46875,0 -0.75,-0.23438 -0.21875,-0.17187 -0.21875,-0.48437 0,-0.14063 0.125,-0.70313 l 0.5625,-2.70312 -0.625,0 0.125,-0.625 0.625,0 0.25,-1.14063 0.90625,-0.54687 -0.35938,1.6875 0.78125,0 -0.125,0.625 -0.78125,0 -0.54687,2.57812 q -0.0937,0.48438 -0.0937,0.57813 0,0.14062 0.0781,0.21875 0.0781,0.0781 0.26563,0.0781 0.26562,0 0.46875,-0.0469 z m 0.74698,-1.125 q 0,-1.375 0.8125,-2.26563 0.65625,-0.73437 1.73437,-0.73437 0.84375,0 1.35938,0.53125 0.51562,0.51562 0.51562,1.40625 0,0.8125 -0.32812,1.5 -0.32813,0.6875 -0.92188,1.0625 -0.59375,0.375 -1.26562,0.375 -0.54688,0 -1,-0.23438 -0.4375,-0.23437 -0.67188,-0.65625 -0.23437,-0.4375 -0.23437,-0.98437 z m 0.79687,-0.0781 q 0,0.65625 0.3125,1 0.32813,0.32813 0.8125,0.32813 0.25,0 0.5,-0.0937 0.25,-0.10938 0.46875,-0.3125 0.21875,-0.21875 0.35938,-0.48438 0.15625,-0.26562 0.25,-0.57812 0.14062,-0.4375 0.14062,-0.84375 0,-0.625 -0.32812,-0.96875 -0.3125,-0.35938 -0.79688,-0.35938 -0.375,0 -0.6875,0.1875 -0.29687,0.17188 -0.54687,0.51563 -0.25,0.34375 -0.375,0.79687 -0.10938,0.45313 -0.10938,0.8125 z m 3.99829,1.84375 0.98438,-4.67187 0.71875,0 -0.17188,0.8125 q 0.46875,-0.46875 0.875,-0.6875 0.40625,-0.21875 0.82813,-0.21875 0.57812,0 0.89062,0.3125 0.32813,0.29687 0.32813,0.8125 0,0.25 -0.10938,0.8125 l -0.59375,2.82812 -0.79687,0 0.625,-2.95312 q 0.0781,-0.4375 0.0781,-0.64063 0,-0.23437 -0.15625,-0.375 -0.15625,-0.15625 -0.46875,-0.15625 -0.60937,0 -1.09375,0.45313 -0.46875,0.4375 -0.6875,1.5 l -0.45312,2.17187 -0.79688,0 z m 8.37327,-1.59375 0.76562,0.0937 q -0.17187,0.5625 -0.76562,1.09375 -0.59375,0.51563 -1.4375,0.51563 -0.51563,0 -0.95313,-0.23438 -0.42187,-0.25 -0.65625,-0.70312 -0.21875,-0.45313 -0.21875,-1.04688 0,-0.76562 0.34375,-1.48437 0.35938,-0.71875 0.92188,-1.0625 0.5625,-0.34375 1.21875,-0.34375 0.82812,0 1.32812,0.51562 0.5,0.51563 0.5,1.40625 0,0.34375 -0.0625,0.70313 l -3.4375,0 q -0.0156,0.14062 -0.0156,0.25 0,0.65625 0.29687,1 0.3125,0.34375 0.75,0.34375 0.40625,0 0.79688,-0.26563 0.39062,-0.26562 0.625,-0.78125 z m -2.3125,-1.15625 2.60937,0 q 0,-0.10937 0,-0.17187 0,-0.59375 -0.29687,-0.90625 -0.29688,-0.32813 -0.76563,-0.32813 -0.5,0 -0.92187,0.35938 -0.42188,0.34375 -0.625,1.04687 z"
       id="path131"
       inkscape:connector-curvature="0"
       style="fill:#000000;fill-rule:nonzero" />
  </g>
</svg>
